<svg xmlns="http://www.w3.org/2000/svg" width="315mm" height="260mm" viewBox="0 0 315 260"><defs><radialGradient r="145" gradientTransform="matrix(1.84 0 0 1.84 -164.56 -424.39)" cx="153.67" cy="518.46" gradientUnits="userSpaceOnUse" id="a"><stop offset="0" style="stop-color:#d5f6ff"/><stop offset=".792" style="stop-color:#0cf"/><stop offset="1" style="stop-color:#045"/></radialGradient><radialGradient r="145" gradientTransform="translate(10.98 115.73) scale(.91998)" cx="153.67" cy="518.46" gradientUnits="userSpaceOnUse" id="b"><stop offset="0" style="stop-color:#adcfad"/><stop offset=".792" style="stop-color:#00cf00"/><stop offset="1" style="stop-color:#040"/></radialGradient><linearGradient x1="185" y1="458.66" x2="185" gradientUnits="userSpaceOnUse" y2="701.42" id="c" gradientTransform="matrix(.56111 0 0 .63107 92.904 281.19)"><stop offset="0" style="stop-color:#fff"/><stop offset="1" style="stop-color:#fff;stop-opacity:0"/></linearGradient></defs><g transform="matrix(.71813 0 0 .743 21.893 -300.894)"><circle transform="translate(87.311 327.33) scale(.51463)" style="color:#000;fill:url(#a);fill-rule:evenodd;stroke:#276d6d;stroke-width:4.28424215;stroke-linecap:round;stroke-linejoin:bevel;stroke-miterlimit:4;stroke-dasharray:none;stroke-opacity:1" cx="193" cy="638.362" r="145"/><path style="color:#000;fill:url(#b);fill-rule:evenodd;stroke:#050;stroke-width:1.68950152;stroke-linecap:round;stroke-linejoin:bevel;stroke-miterlimit:4;stroke-dasharray:none" d="M186.26 581.61c-2.998 0-5.954.171-8.86.516l.829.109s1.73.761 2.015 1.047c.292.288.208 1.16.11 1.64-.1.482-.382.58-.766 1.157-.386.579.766.281.766.281l1.343.672s-.389.01-.968.11c-.58.095-1.344.28-1.344.28l-.094 1.063 1.922-.39-.187.671-1.344.297-1.36 1.625-.093 3.078.297 2.61.765 2.109 1.25.203 1.438.86 1.937-.094 1.922-2.594 2.016-1.938.578-1.046.969-.579 2.109-.484 2.688-.578 2.796-1.828c.286-.192 7.22-2.313 7.22-2.313l1.53.094s.398-1.917.11-2.11c-.292-.19 1.14-1.343 1.14-1.343s.21-.1.266-.125a74.485 74.485 0 0 0-21-3zm-22.266 3.375a73.997 73.997 0 0 0-10.422 4.156l-.11.25-1.062.578-1.297.97-1.11.421-.077-.297a74.711 74.711 0 0 0-10.438 7.063c1.655-.825 4.5-2.282 4.5-2.282l.672-.718 1.109-.11 2.406-1.094 1.828-1.25.188.094-1.39 1.297-.376.484-1.11.532 1 .14-.14.578 1.11-.203 1.109-.906.86.297.39.422 1.203-.047-.047-.906-1.875-1.36-.437-.422-.188-.484.813.094.672.578.718-.719 1.453-.187 1.438-1.016-.094-.625 1.11-1.063-.735-.765 1.938-.047 1.672.047s.823-.38.968-.14c.145.24 1.391 1.155 1.391 1.155l-.484.422-1.97.25-.484.953 1.454.204 1.093-1.157 1.203-.093.204 1.14s-1.356.78-1.547.828c-.193.052-1 .422-1 .422l-.063.875-1.297.14-1.344-.234-.625.047-1.015.813.828.719s1.199-.482 1.39-.625c.192-.144.826-.43.97-.188.144.24.952.906.952.906l.672 1.313.625.187 1.922.625s1.36.344 1.36.438c0 .096-.141-.828-.141-.828l-1.016-1.203s-.051-.328.282-.235c.34.096 1.156.813 1.156.813.141.048 1.11.625 1.11.625l.39-1.047.86-.531-.329-.625-.484-.532-.531-.625.046-.718s.138-.11.282-.203c.143-.095.59-.424.687-.235.094.193 1.047 1.438 1.047 1.438l.922.203.422-.735s1.203-.143 1.203-.093c0 .048.094-.578.094-.578l1.109-.282-1.578-1.406-.875-.422-.672.188-.625-.719.672-.625.297-.875-.766-.766-1.203-.234-.297-.625s-1.011-.141-1.156-.047c-.146.1-.86-.875-.86-.875l-.53-.703zm39.547 7.156-1.734.969s.868.37 1.156.562c.288.193.86-.187.86-.187v.875s1.538.85 1.343 1.14c-.19.288 2.516-.28 2.516-.28l2.687-.876.578-1.047-1.062-.875-4.907.579-1.437-.86zm25.969 3.297c-.434.138-.89.297-.89.297l-1.282 1.219s-.326.605-.39.765c-.067.162.093 1.86.093 1.86s.773.01.547.234c-.225.223-.187 1.25-.187 1.25l.89.594s1.195.393 1.36.36c.153-.032.73-.42.828-.485.09-.063.792-.763 1.015-.734.224.035.809-.604.875-.375.063.224.186 1.026.313 1.218.128.193.59.538.781.985.19.45.443.908.375 1-.067.1-.516.531-.516.531s-.947.133-1.078.266c-.127.126-.294.188-.39.125-.1-.065.325-.518.422-.641.097-.131-.23-.64-.36-.61-.13.034-.25-.279-.125-.374.13-.097.094-.72.094-.72s-.186-.095-.281-.062c-.097.033-1.22.485-1.22.485s-.608.638-.64.765c-.034.132-.305.803-.14 1.282.16.483.547 1.265.547 1.265s.422.277.265.406c-.158.128-.484.61-.484.61l-.766.031s-1.385.173-1.515.234c-.127.066-1.467.48-1.407.61.068.128-.297 1.5-.297 1.5-.062.032-1.403 1-1.562 1-.16 0-1.156.25-1.156.25s-.454 1.19-.485 1.125c-.032-.065-1.5.703-1.5.703s-1.124-.324-1.156-.453c-.032-.127-.422-.41-.453-.313-.034.098.39 1.089.39 1.281 0 .188.067.58-.062.454-.129-.132-.779-.326-.906-.391-.131-.063-1.219-.031-1.219-.031h-.453s-.546.488-.578.39a4.03 4.03 0 0 0-.063.407l.329.328 1.156.484 1.094.672.406 1.016.484.968s-.315 1.98-.375 2.078c-.07.095-.75.547-.75.547l-2.078-.03s-1.03-.219-1.125-.25c-.096-.035-1.55.19-1.578.062-.032-.13-.484-.094-.484-.094l-.22-.266h-.577l-.485.547-.703.031v.578s.298 1.315.266 1.22c-.032-.1-.14 1.546-.14 1.546s-.68 1.394-.75 1.5c.015.042-.048.938-.048.938l.422.672.063.796s-.317.736-.188.672c.13-.065 1.144.034 1.172-.093.032-.128.657-.41.75-.188.095.224.447-.013.547.375.09.384.45.936.484 1.031.032.1.282.188.282.188l.093.265-.187.157-.797 1.797-1.781 1.25-1.047.671-.297.797-.438.516-.14 1s.13 1.246.062 1.312c-.062.064-2.39 2.282-2.39 2.282l-1.297.28-.703 1.22s-.954.898-1.016 1.062c-.067.158-.547.766-.547.766s.032 1.284 0 1.094c-.033-.193-1.39 1.062-1.39 1.062s-.25 1.465-.313 1.531c-.063.062-.698 1.189-.797 1.157-.096-.033-.203.777-.203.906 0 .127.328.5.328.5s.454.878.485.781c.016.043.03.281.03.281l-.452.453s.484.733.484.829v1.984l-.516 1.094-.265 1.422-.766.609.031.375.672.547.11.61-.203.671v.672l.484 1.125s.482.393.578.297c.096-.097 1.057.605 1.188.828.128.225 1.312 1.637 1.312 1.703 0 .063.188.375.188.375l.578 1.969s2.795 2.298 2.86 2.203c.063-.093 2.983 2.094 2.983 2.094s2.344-1.16 2.313-1.063c-.035.095 1.984-.093 1.984-.093l1.22.187.89.422 3.281-1.5.64-.5 2.532-.094 1.219.485s.796 1.182.796 1.375c0 .192.482 1.066.547.937.062-.125 2.855-.25 2.953-.219.093.032 1.313 1.22 1.313 1.22l-.063 1.124-.187 1.985-.39.953-.376.875-.109.61s2.89 4.233 2.89 4.265c0 .031.735 1.765.735 1.765l.875 2.203.516 1.25-.516.704.828 2.156-.281 2.11-1.25 2.734-.547 2.015.156 2.703 1.5 3.11 1.578 3.562.157 3.906.718 1.344c14.306-13.576 23.22-32.768 23.22-54.047a75.27 75.27 0 0 0-.75-10.562l-1.063-1.937s-1.215-3.012-1.344-3.172c-.126-.16-.612-.97-.453-.938.16.033 1.312-.125 1.312-.125l.547.656a74.006 74.006 0 0 0-1.437-5.562c-.07.152-.15.299-.297.39-.384.243-.96.569-1.297.329-.334-.242-1.696-.19-1.844-.14-.142.047-1.775-.054-1.969.28-.191.338-1.426.099-1.625 0-.191-.095-2.558-1.047-2.75-1.093-.191-.048-1.4-.575-1.593-.72-.192-.145-1.391-.293-1.438-.437-.049-.145.102-.345-.094-.297-.188.045-1.59.485-1.78.625-.196.15-.626.532-.626.532s-.58.583-.531 1.015c.052.433.582.776.39 1.016-.191.24-.859.515-.859.515s-.732-.67-.969-.765c-.24-.097-2.5-.438-2.5-.438l-.921-1.047s-1.434-.967-1.579-1.015c-.145-.048-1.74.004-1.984-.188-.242-.195-1.007-1.205-1.39-1.156-.386.048-.238-.576-.094-.672.143-.096.578-.918.531-1.062-.05-.146.246-.963-.234-1.203-.481-.247-.157-1.063-.157-1.063s.49-.094.297-.094c-.192 0-.915.053-1.11-.187-.188-.24-.25-.345-.437-.25-.196.097-1.388.298-1.53.25-.147-.047-1.308.094-1.5.094-.192 0 .052.049-.188 0-.244-.049-1.204.389-1.25.578-.044.192-1.01-.044-1.157 0-.146.048-1.546.047-1.546.047l-2.297.39s-1.547.776-1.594 1.016c-.049.24-.529.625-.672.719-.143.097-1.01-.013-1.063-.157-.045-.144-1.593.063-1.593.063s-.62-.349-.813-.203c-.191.144-.187-.625-.187-.625l.234-.578.875-.578 2.063-.375 1.015-.672.625-.25.375-1s.72-.15.672-.297c-.047-.144-.234-.813-.234-.813l1.39-2.172 1.985-.953.328-.687s-.189-.854-.047-1c.143-.145 1.437-.438 1.437-.438l1.641.532s.87-.576 1.062-.672c.192-.098 1.11-.625 1.11-.625s.088-.439.281-.391c.193.047 1.011-.135 1.11.25.095.385.812 1.578.812 1.578l1.11 1.156 1.062.828 1.297.47s.763.67.906.718c.144.047.875.875.875.875l.375.672s-.23.524-.422.765c-.191.238-.777.864-.922.813-.145-.044-1.25-.234-1.25-.234l-1.203.14s-.195.291.14.531c.337.24.728.2 1.063.391.343.192 1.203.578 1.203.578s.579.091.579.235c0 .145.189-.383.14-.72-.047-.335-.087-.761.25-.859.34-.095.86-.01.86-.156 0-.143.156-.328.156-.328l.422-.531-.047-.328.437-.344s-.242-.287-.437-.531c-.19-.242-.39-.385-.25-.625.147-.24.63-.584.875-.39.239.19.97.288.922.53-.046.239-.004.58.093.39.093-.193.047-.968.047-.968s-.381-.53-.718-.578c-.334-.05-1.215-.482-1.454-.578-.239-.097-.671-.328-.671-.328s.19-.533-.094-.485c-.292.048-1.156-.092-1.156-.234 0-.147-.862-.828-.907-.969-.048-.147-.828-1.203-.828-1.203s-.423-.434-.468-.578c-.05-.145-.107-.382-.204-.766-.099-.384.97-1.346.922-1.203-.049.142.243.334.438.766.189.435.95 1.165 1.047 1.453.095.288 1.154 1.094 1.39 1.188.245.095.392.386.875.578.483.193.439.287 1.063.578.622.289.72.39.812.531.1.147.478.104.625.344.144.239.344.291.344.531 0 .24.195.237.094.719-.094.48-.237.623-.188.719.049.098.913 1.875 1.25 1.875.336 0 1.332.393 1.188.968-.144.577.625 1.344.625 1.344s.65.035 1.094.11c.018-.336-.053-.875.312-1.079.428-.24 1.05-.48.953-.718-.098-.24-.195-.667-.578-.953-.38-.288-.764-.447-.86-.922-.094-.483-.244-1.116.188-.922.432.19.82 1.114 1.016.484.189-.624.664-1.051 1-.906.34.144.97.386.922.578-.05.192.437 1.734.437 1.734s.186.14.281.86c.096.72.72.915.625 1.156-.097.238-.382.386.391.484.766.097 1.484.23 1.484.422 0 .193.638.296.735.438.094.145.668.428.765.14.096-.285.294-.862.438-.765.144.1 1.34.098 1.437.484.075.285.548.361.782.422a74.045 74.045 0 0 0-2.875-6.453l-1.703-.422-1.063-.531-.578-.625h.531l-.187-.766.093-.531.47-.281.234-.922a74.7 74.7 0 0 0-9.625-13c-.208.114-.601.393-.75.453-.16.064-.637.255-.735.031-.094-.225-.297-.578-.297-.578s-.152-.315-.218-.219c-.057.093-.422.125-.422.125l-.828.313s-.453.326-.547.39c-.1.064-.574.06-.766.157-.192.097-.779.584-.937.359-.163-.223-.256.15-.454-.203-.187-.352-.117-.738-.343-.672-.222.064-.737.2-.797.328-.067.128-.142.122-.266.25-.129.127-1.062.234-1.062.234v-.078l1.062-.89.235-.875s.985.169 1.015.297c.032.126.264-.29.516-.063.259.224.576.197.61.39.027.194.218.41.25.282.03-.129.03-.547.03-.547s-.275-.15-.437-.25c-.162-.095-.13-.392.031-.484.158-.096.605-.364.734-.266.13.094.704-.125.704-.125s.093-.19.156-.281c.067-.1.39-.969.39-.969s-.234-.1-.296-.39a.576.576 0 0 1 .015-.22 74.953 74.953 0 0 0-8.125-6.702zm-71.859.938c-.097.1-.438.437-.438.437l-3.171-.297-1.11 1.922-.234 1.016s-1.74 1.74-1.953 1.875c.127-.037.937.765.937.765l-.719 1.735-2.75 1.594-1.343.187s-.814 2.981-.766 3.172c.047.194-1.11.719-1.11.719l-.812.578-.344-1.047s-.369-.811-.515-1.016c.215.089 1 .188 1 .188l.14-.672-.765.047.328-1.11.734-1.203-2.515-.187-.563-.672-1.265-.188-.094-.53-.86-.532-1.062-.484-1.156.14-.047-1 .281-.969-1-.171c-14.869 13.363-24.327 32.634-24.703 54.109l1.172.28 1.89-.577 1.204.578 1.828 2.11 1.875.484 1.922.672h.906l.25 1.109s.87 1.106 1.062 1.25c.191.144.047 1.39.047 1.39l.813.438.953 1.016.625.578.688.765.421-.297.875.25 1.25 1.157.813-.485-.234-.922.765-.765h.672l.719.578-.047.672.875 1.39.047 3.907-.781 1.25-1.047.718-.047 1.157-1.11.437-.437 1.531-.672 1.344.14 1.156.97.875-.876.907-.625.921.578 1.828s.282.91.282.813c0-.096.922.625.922.625l1.687 3.36 1.625 2.374s2.39 4.775 2.438 4.813c.717.527 5.937 4.297 5.937 4.297l.906 4.687.25 9.875.766 2.828-.078 1.297a74.363 74.363 0 0 0 12.953 7.156c.392.001 1.11.079 1.11.079l2.187-.579s.829-1.478.765-1.734c-.064-.256-.062-1.094-.062-1.094s-.004-.572-.516-.64c-.516-.062-.512-.247-.64-.766-.13-.511-.516-1.094-.516-1.094l-.64.125.577-.562 1.282.953 1.922.328 1.484-1.484 1.016-2.5.453-1.86h.968l1.016-1.86.39-1.734-.327-2.125.453-.765 3.343-2.235 2.5-.843.829-.641s1.28-1.73 1.28-1.922c0-.192.516-2.687.516-2.687s.582-2.95.516-3.141c-.062-.196.13-2.764 0-2.828-.129-.063.063-.766.063-.766l2.437-3.469 1.156-2.625s.833-1.353.703-1.609c-.13-.257-.828-2.437-.828-2.437s-1.542-.324-1.61-.516c-.063-.192-2.689-2.502-2.75-2.438-.068.063-1.09-1.027-1.218-.703-.126.32-2.125.328-2.125.328l-2.11-.515s-.893.635-.702.375c.192-.256.063-1.79 0-1.531-.064.253-3.22-1.344-3.22-1.344l-1.093.953v-1.219l-1.656-1.016.187-1.359-.765-.64s-.123.19-.188.062c-.063-.127-.516-2.688-.516-2.688l-2.437-1.984-2.953-.14-2.703-1.47-.578-1.343s-1.532-.713-1.532-.906c0-.192-.446-.059-.578-.125-.124-.062-.062-.704-.062-.704l-.703-.578-.266-.172-.625-.187-.375-.547s1.394-.612 1.25-.562c-.14.045-3.125.468-3.125.468l-.297.578-1.39-.718-2.36-.14s-1.689-.669-1.64-.86c.05-.193-.532-.922-.532-.922s-.372.92-.468 1.015a79.78 79.78 0 0 1-1.297 1.094l.093 1.547-.828-.86.578-.827v-1.157c0-.147.735-.468.735-.468l-.297-.625s-.86.23-.86.375c0 .143-1.156.828-1.156.828l-1.406.515h-.61s-.632 1.012-.78 1.063c-.143.049-.094.969-.094.969s-1.544 1.723-1.64 1.53c-.097-.19-1.72-1.53-1.72-1.53l-1.937.234-1.094.578-1.36-.906-1.046-1.64.094-1.923.578-2.125.234-1.39-1.437-1.063s-2.938.238-2.938.094c0-.142-1.597.054-1.547-.094.046-.142.578-1.056.578-1.203 0-.145.39-1.25.39-1.25l.626-1.25.812-2.39.485-.828-2.406-.141-1.438.578-.812 2.406-4.094 1.094-1.016-.766s-.098.444-.047.204c.045-.24-1.25-1.938-1.25-1.938l-.625-2.344s1.646-4.864 1.594-4.765c-.048.094.047-1.782.047-1.782l5.14-3.375 1.97.297.484.47 1.203-.188 1.203-1.204 1.547.188 1.484-.281.922 1.015 1.344-.53.719.765.437.484v.813l-.344.78.344 1.72.953 1.359.625.234.766-2.109-.14-1.984-.329-1.579v-1.156l1.969-2.406 2.547-1.828 2.015-1.156 1.782-1.922-.094-1.828.781-.14.75-1.641.781.093 1.485-1.875 2.5-.86 1.547-.296.484-.516-.578-.484 1.203-1.781 3.797-1.5 2.312-.672-1.875 1.203.375.922 1.407-.39 1-.626 2.656-.718s.418-.705.516-.829c-.093.24 1.359-.234 1.359-.234l-.297-.578.11-.766-.782.282-1.156 1.25-1.875-.094-.86-1.297.813-1.11s.813-1.63.766-1.53c-.05.093-1.297-.391-1.297-.391l-1.875.672c-.192 0-1.969 1.065-1.922.921.05-.144-.906.532-.906.532l2.437-1.97 1.016-.155 1.156-1.063h5.531l1.875-.375 2.5-1.344.203.235-1.062 1.015-1.297 1.344-1.25 1.344-.625.812 1.969.094s1.54.039 1.687 0c.193-.048.235.672.235.672l.812-.563.438 1.094 1.453-1.093-.438-1.25.39-1.172-1.687.062v-.625s-.622-.72-.672-.625c-.05.097.956-.814.907-.719-.048.097-.438-.484-.438-.484l1.156-1.453-.562-1.625-.203-.828-1.485-.719-.53-.719-.688-.531.53-1.25-.234-.906s-.436-2.986-.484-2.89c-.05.097-2.015 1.64-2.015 1.64l-2.016 1-1.063-.906.094-1.204.922-.875-1.5-.468-.094-.391s-1.342-1.345-1.437-1.25zm62.375 3.906-.453.187-.422.625s-.39.096-.547 0c-.158-.096-.481.001-.61-.03-.127-.037-.421.374-.421.374s-.433.484-.563.516c-.128.032-.579.546-.546.578.034.032.062.453.062.453s-.09.155-.25.187.125.579.125.579l.39.187s-.232.233-.359.203c-.13-.035-.427.312-.203.406.225.094.328.234.297.329-.028.1.484.156.484.156l.407-.094-.282.453s.062.278.157.407c.099.128.422 0 .422 0s.762-.126.859-.094c.093.03-.031.328-.031.328l.297.437s.155.653.187.844c.035.196-.25.125-.25.125s-.616.09-.75.063c-.128-.032-.37.229-.594.484-.226.262.032.156.032.156h.468s.033.32.063.453c.029.128-.375.251-.5.22-.128-.031-.719.265-.719.265l.031.469.719.078.703.093.125.22s-.452.096-.578 0c-.128-.097-.516.515-.516.515l-.343.375-.75.578.421.203.25-.328.657.031.687-.094s.435-.515.531-.515c.094 0 1.079-.031 1.079-.031s.81-.159.906-.094c.096.064.728.188.828.219.094.031 1.344-.344 1.344-.344s.264-.419.328-.547c.067-.128-.357-.247-.453-.344-.096-.096.321-.232.515-.328.191-.096.262-.45.36-.61.092-.158-.14-.484-.172-.577-.03-.1-.482-.064-.61-.094-.128-.033-.671.031-.671.031l.03-.64s-1.5-2.06-1.468-2.157c.032-.093-.355-.704-.516-.734-.16-.032-.354-.166-.546-.422-.191-.254.265-.578.265-.578s.529-.576.594-.703c.064-.129-.062-.515-.156-.547-.098-.032-1.22.031-1.22.031s-.31-.248-.28-.344c.033-.1.355-.125.453-.125.09 0 .669-1.124.797-1.156.127-.034-.094-.328-.094-.328zm-5.203 4.687-.516.157-.281.421-.39.407c.098-.093.357-.082.296.078-.067.16-.328.312-.328.312h-.375l-.328-.187-.484.062-.157.282.188.453-.313.328.375.312.391.094-.062.453-.422.188-.547.359-.156.61.484.28.766.172.796-.203.688-.375.187-.187 1.125-.078.125-.469.25-.484v-1.391l.61-.344-.188-.89-.968-.235-.766-.125zm-86.094 40.72c0-.101-1.64 1.296-1.64 1.296v.14s.148.668.202.813c.045.144 1.108-.773 1.204-1.156.095-.383.855-.481 1.046-.578.196-.093.292.39.485.39.195 0 1.062.298 1.062.298l1.735.562.672.625s.28 1.539.28 1.734c0 .194 1.313.094 1.313.094l2.547-.234s.817-.48.766-.625c-.044-.143-.772-.375-1.156-.375-.385 0-1.782-1.352-1.875-1.64-.1-.29-3.22-1.063-3.22-1.063s-3.421-.187-3.421-.282zm10.969 3.89c-.382 0 0 .437 0 .437l-.14 1.391h-1.595l-.046.14s-.438.15-.438.438c.001.288.585.186.828.281.238.096.618-.047.813-.047.195 0 .828-.14.828-.14s.187.433.187.578c0 .142 1-.043 1-.188 0-.145.25-.53.25-.53l1.203-.25s1.638.046 1.782.046c.145 0 .244-.283-.047-.812-.286-.531-1.12-.63-1.313-1.016-.192-.382-1.102-.138-1.344 0-.24.146-1.581-.328-1.968-.328z"/><ellipse style="opacity:.494;fill:url(#c);fill-rule:evenodd;stroke-width:.59506273;filter:url(#filter9189)" cx="185.487" cy="633.24" rx="50.5" ry="32.5"/><ellipse style="opacity:1;fill:red;fill-opacity:1;stroke:#276d6d;stroke-width:1.07606685;stroke-linecap:round;stroke-linejoin:bevel;stroke-miterlimit:4;stroke-dasharray:none;stroke-dashoffset:1.21209455;stroke-opacity:1;paint-order:stroke fill markers" cx="138.5" cy="623.109" rx="1.527" ry="1.505"/><ellipse ry="1.505" rx="1.527" cy="621.65" cx="216.84" style="opacity:1;fill:red;fill-opacity:1;stroke:#276d6d;stroke-width:1.07606685;stroke-linecap:round;stroke-linejoin:bevel;stroke-miterlimit:4;stroke-dasharray:none;stroke-dashoffset:1.21209455;stroke-opacity:1;paint-order:stroke fill markers"/></g><path d="M640.756 36.827c-.585-.002-1.17.005-1.756.023-5.99.07-11.99-.15-17.98.24-10.41 1.02-20.94 1.27-31.17 3.65-5 .89-9.96 1.98-14.94 2.91-10.14.92-19.431 5.28-29.031 8.28-7.69 3.09-15.509 6.54-21.549 12.37-3.83 3.54-8.27 6.37-11.89 10.14-17.16 17.16-29.78 38.33-39.53 60.43-4.43 11.73-10.03 22.99-14.11 34.86-3.81 10.15-6.38 20.72-8.7 31.3-3.32 19.77-4.49 40.07-1.87 59.99.78 4.94 1.68 10.05 4.43 14.33 2.93 4.28 5.73 8.769 9.85 12.039 0 4.57.23 9.411 2.59 13.461 2.92 5.56 8.09 9.37 13.03 13.02 7.48 5.36 16.7 7.219 24.84 11.269 4.77 2.25 3.82 8.52 6.59 12.31 7.25 9.91 18.03 16.14 27.72 23.32 4.26 3.22 8.98 5.74 13.71 8.2 11.49 5.82 22.89 11.811 34.06 18.201-.14 7.85-1.57 15.75-4.66 22.99-1.67.16-3.43.32-4.7 1.54-4.91 4.06-9.41 8.6-14.21 12.78-2.83 2.68-6.13 5.04-8.08 8.5-5.67.33-11.36 1.29-16.53 3.73-7.98.95-15.44 4.18-22.74 7.37-9.96 4.22-19.02 10.2-28.12 15.96-5.48 3.34-9.77 8.19-14.38 12.58-6.77 7.42-12.8 15.57-17.71 24.34-4.39 9.02-9.2 18.04-10.97 28.03-5.41 19.91-6.75 40.57-9.23 60.97-1.06 6.78-.18 13.8-2.27 20.41-3.52 17.29-2.44 35.07-2.56 52.61-.01 18.87 5.41 37.26 12.63 54.53 6.36 10.58 14.97 19.59 24.03 27.9 3.75 3.73 8.51 6.1 13.12 8.55-.82 5.75 1.38 11.32 1.48 17.04.24 14.3.7 28.59.39 42.9-.29 8.13-2.04 16.11-3.58 24.07-.63 5.16-5.5 8.24-6.86 13.12-3.07 10.19-6.04 20.43-8.27 30.84-.59 3.83-1.91 8.26.61 11.7 3.87 5.93 8.06 11.71 13.3 16.52.03 5.67 4.16 10.199 4.29 15.909-1.27 1.08-3.07 1.881-3.39 3.701-1.34 5.17-2.07 10.64-1.39 15.97 1.26 1.48 3.06 2.34 4.75 3.24 8.52 4.13 16.86 8.939 26.17 11.089 5.03 1.15 10.01 2.54 15.1 3.49 16.96 3.26 33.85 6.87 50.97 9.24 26.74 4.82 54.15 6.77 81.21 3.74 12.21-1.1 24.42-2.31 36.64-3.33 14.44-2.31 29.14-3.08 43.35-6.67 8.17-1.98 15.87-5.42 23.72-8.33 6.89-2.56 12.37-7.588 18.06-12.048 2.51-1.62 1.01-4.832.85-7.192-1.13-4.97-1.25-10.07-1.92-15.09.1-6.68-2.11-14.47 2.6-20.09 3.33-4.67 6.46-9.47 10.03-13.97 2.03-2.96 4.73-6.01 4.67-9.79-2.49-14.66-11.94-26.698-17.11-40.368-2.45-17.12-4.53-34.35-4.55-51.67-.65-9.31-.51-18.641-.62-27.961 4.56 0 9.26.349 13.65-1.211 5.36-1.88 10.46-4.56 15.09-7.87 6.17-4.11 10.6-10.148 15.29-15.778 2.57-2.77 1.81-6.98 3.93-10.01 4.52-7.06 8.97-14.24 11.88-22.15 2.93-6.78 2.55-14.362 4.64-21.372 1.75-6.04 1.23-12.409 1.37-18.619.25-11.17-2.99-21.98-4.07-33.02-1.25-10.82-3.57-21.49-5.9-32.12-3.29-10.42-5.45-21.14-8.34-31.66-7.43-21.31-13.43-43.39-24.89-63.02-6.01-12.19-12.52-24.27-21.24-34.76-6.19-7.36-14.16-12.97-22.51-17.61-6.18-2.96-12.81-4.91-19.49-6.36-4.18-.98-8.28-2.33-12.58-2.63-5.53-.65-10.84-2.47-16.38-2.96-8.53-8.29-16.96-16.7-25.41-25.07-1.47-1.68-4.19-2.54-5.82-.58-3.08-7.02-5.38-14.35-6.42-21.95 16.89-6.44 31.54-17.18 47.01-26.3 10.7-7.81 21.1-16.13 30.29-25.71 3.42-3.86 8.83-4.05 13.4-5.61 6.39-1.94 11.441-6.5 16.791-10.28 2.95-2.33 6.17-4.45 8.53-7.42 1.79-2.91 2.299-6.38 3.519-9.54.83-2.67 2.23-5.21 2.52-8.03 1.88-2.27 4.06-4.32 5.77-6.73 6.3-13.99 7.31-29.52 9.05-44.57.04-7.39 1.19-14.74.89-22.13-.69-12.52-1.98-25.1-5.39-37.21-.8-4.31-2.79-8.36-2.93-12.78-.2-4.21-2.22-8-3.47-11.95-3.33-9.98-6.81-19.961-11.54-29.371-7.7-16.32-16.64-32.108-27.35-46.648-4.38-4.95-9.3-9.38-13.76-14.23-3.49-5.72-9.98-8.202-15.4-11.622-7.27-4.36-15.24-7.28-23.34-9.68-9.56-3.76-19.82-4.88-29.8-7-8.616-1.518-17.232-3.608-26.004-3.632zm.703 174.683.004.004a93.126 93.126 0 0 0-.004-.004zm-124.328 25.03a161.894 161.894 0 0 1 0 0zm166.36 15.64c.21.29.34.632.431.998-.091-.366-.221-.709-.432-.998zm-211.503 5.047h.002a17.487 17.487 0 0 0-.002 0zm-2.478 3.334zm225.3 265.705zM575.22 529.2c-.001 3.524.078 7.05.098 10.578-.02-3.527-.1-7.054-.097-10.578zm128.929 6.203c-.425.21-.841.43-1.249.658v-.002c.408-.228.824-.447 1.249-.656zm28.167 16.728zm-105.486 98.49zm-50.87 18.39h.001a11.307 11.307 0 0 1-.002 0zm126.661 19.122c.565 1.818 1.08 3.652 1.59 5.488.764 2.756 1.512 5.518 2.383 8.24-.87-2.722-1.619-5.484-2.383-8.24-.51-1.836-1.025-3.67-1.59-5.488zm8.985 25.848z" style="fill:#2f2f2f;stroke:#2f2f2f;stroke-width:13.5269289;stroke-miterlimit:4;stroke-dasharray:none" transform="matrix(.26458 0 0 .26458 -108.49 -3.791)"/><path style="fill:#2f2f2f;stroke:#2f2f2f;stroke-width:.30000001" d="M589.85 40.74c10.23-2.38 20.76-2.63 31.17-3.65 5.99-.39 11.99-.17 17.98-.24 9.38-.28 18.57 1.99 27.76 3.61 9.98 2.12 20.24 3.24 29.8 7 8.1 2.4 16.07 5.32 23.34 9.68 5.42 3.42 11.91 5.9 15.4 11.62 4.46 4.85 9.38 9.28 13.76 14.23 10.71 14.54 19.65 30.33 27.35 46.65 4.73 9.41 8.21 19.39 11.54 29.37 1.25 3.95 3.27 7.74 3.47 11.95.14 4.42 2.13 8.47 2.93 12.78 3.41 12.11 4.7 24.69 5.39 37.21.3 7.39-.85 14.74-.89 22.13-1.74 15.05-2.75 30.58-9.05 44.57-1.71 2.41-3.89 4.46-5.77 6.73.03-6.89.48-13.97-1.84-20.59-1.49-6.18-3.17-13.58-9.69-16.32-4.01-.66-8.04 1.37-10.48 4.5a78.609 78.609 0 0 1-22.43 20.09c-.72-3.33-.66-6.74-.42-10.11.51-8.83-.48-17.63-1.53-26.38-7.07-.12-14.25.01-21.12-1.93-18.35-4.08-37.38-7.46-53.62-17.51-7.2-4.81-15.17-8.54-21.44-14.62 2.62 6.52 5.97 13.03 11.41 17.66 9.1 8.41 18.88 16.24 29.71 22.33 1.64.62 1.36 2.54 1.74 3.94-9.35.37-18.68 2.23-28.06 1.26-5.41-.59-10.76-1.84-16.23-1.62-17.02.21-33.94-2.95-50.12-8.06-16.25-6.89-31-17.09-43.86-29.13-7.13-5.82-12.9-13.05-19.18-19.72-4.26-3.85-7.09-8.92-10.88-13.19-1.89 8.21-1.11 16.67-1.25 25.01.29 11.85 1.51 23.7 4.06 35.28 1.63 10.2 4.33 20.23 8.42 29.73-9.23.36-18.97-1.06-26.59-6.64-4.21-3.24-9.49-4.89-13.21-8.77-2.55-2.54-5.41-5.66-9.41-5.1-3.98-.47-6.59 3.14-8.5 6.07-4.51 8.18-6.97 17.48-7 26.83-4.12-3.27-6.92-7.76-9.85-12.04-2.75-4.28-3.65-9.39-4.43-14.33-2.62-19.92-1.45-40.22 1.87-59.99 2.32-10.58 4.89-21.15 8.7-31.3 4.08-11.87 9.68-23.13 14.11-34.86 9.75-22.1 22.37-43.27 39.53-60.43 3.62-3.77 8.06-6.6 11.89-10.14 6.04-5.83 13.86-9.28 21.55-12.37 9.6-3 18.89-7.36 29.03-8.28 4.98-.93 9.94-2.02 14.94-2.91z" transform="matrix(.26458 0 0 .26458 -108.49 -3.791)"/><path style="fill:#f2c5b2;stroke:#f2c5b2;stroke-width:.30000001" d="M515.99 184.98c3.79 4.27 6.62 9.34 10.88 13.19 6.28 6.67 12.05 13.9 19.18 19.72 12.86 12.04 27.61 22.24 43.86 29.13 16.18 5.11 33.1 8.27 50.12 8.06 5.47-.22 10.82 1.03 16.23 1.62 9.38.97 18.71-.89 28.06-1.26-.38-1.4-.1-3.32-1.74-3.94-10.83-6.09-20.61-13.92-29.71-22.33-5.44-4.63-8.79-11.14-11.41-17.66 6.27 6.08 14.24 9.81 21.44 14.62 16.24 10.05 35.27 13.43 53.62 17.51 6.87 1.94 14.05 1.81 21.12 1.93 1.05 8.75 2.04 17.55 1.53 26.38-.24 3.37-.3 6.78.42 10.11a78.609 78.609 0 0 0 22.43-20.09c2.44-3.13 6.47-5.16 10.48-4.5 6.52 2.74 8.2 10.14 9.69 16.32 2.32 6.62 1.87 13.7 1.84 20.59-.29 2.82-1.69 5.36-2.52 8.03-1.22 3.16-1.73 6.63-3.52 9.54-2.36 2.97-5.58 5.09-8.53 7.42-5.35 3.78-10.4 8.34-16.79 10.28-4.57 1.56-9.98 1.75-13.4 5.61-9.19 9.58-19.59 17.9-30.29 25.71-15.47 9.12-30.12 19.86-47.01 26.3 1.04 7.6 3.34 14.93 6.42 21.95-6.52 6-14.01 10.78-20.92 16.29-6.45 5.15-13.53 9.51-19.58 15.15-.93.03-1.84.06-2.75.06-13.53-4.28-24.87-13.28-35.77-22.07-3.31-2.48-6.58-5.09-8.98-8.49 3.09-7.24 4.52-15.14 4.66-22.99-11.17-6.39-22.57-12.38-34.06-18.2-4.73-2.46-9.45-4.98-13.71-8.2-9.69-7.18-20.47-13.41-27.72-23.32-2.77-3.79-1.82-10.06-6.59-12.31-8.14-4.05-17.36-5.91-24.84-11.27-4.94-3.65-10.11-7.46-13.03-13.02-2.36-4.05-2.59-8.89-2.59-13.46.03-9.35 2.49-18.65 7-26.83 1.91-2.93 4.52-6.54 8.5-6.07 4-.56 6.86 2.56 9.41 5.1 3.72 3.88 9 5.53 13.21 8.77 7.62 5.58 17.36 7 26.59 6.64-4.09-9.5-6.79-19.53-8.42-29.73-2.55-11.58-3.77-23.43-4.06-35.28.14-8.34-.64-16.8 1.25-25.01z" transform="matrix(.26458 0 0 .26458 -108.49 -3.791)"/><path style="fill:#fff;stroke:#fff;stroke-width:.30000001" d="M668.39 409.22c1.63-1.96 4.35-1.1 5.82.58 8.45 8.37 16.88 16.78 25.41 25.07-2.22 8.37-7.22 15.56-12.18 22.52-5.26 6.85-10.43 13.87-17.11 19.44-10.11-4.18-18.65-11.2-26.9-18.22-6.11-5.14-10.11-12.18-15.54-17.95 6.05-5.64 13.13-10 19.58-15.15 6.91-5.51 14.4-10.29 20.92-16.29zM575.69 411.7c1.27-1.22 3.03-1.38 4.7-1.54 2.4 3.4 5.67 6.01 8.98 8.49 10.9 8.79 22.24 17.79 35.77 22.07-2.92 6.48-7.83 11.7-12.42 17.02-7.42 8.63-17.48 15.44-28.7 17.82-8.03-8.58-16.27-17.13-22.39-27.22-3.08-4.93-6.47-9.77-8.23-15.36 1.95-3.46 5.25-5.82 8.08-8.5 4.8-4.18 9.3-8.72 14.21-12.78z" transform="matrix(.26458 0 0 .26458 -108.49 -3.791)"/><path style="fill:#f29c9f;stroke:#f29c9f;stroke-width:.30000001" d="M536.87 436.71c5.17-2.44 10.86-3.4 16.53-3.73 1.76 5.59 5.15 10.43 8.23 15.36 6.12 10.09 14.36 18.64 22.39 27.22 10.31 10.92 24.35 16.8 36.95 24.52 2.95 1.67 5.75 3.82 9.09 4.66 2.75-.08 5.03-1.94 7.31-3.28 11.41-7.6 23.41-14.65 32.96-24.63 6.68-5.57 11.85-12.59 17.11-19.44 4.96-6.96 9.96-14.15 12.18-22.52 5.54.49 10.85 2.31 16.38 2.96-2.85 10.75-7.34 21.19-14.16 30.04-7.76 10.1-16.35 19.63-26.08 27.88-7.28 6.19-15.97 10.32-24.45 14.58-4.1 2-8.28 3.84-12.57 5.41-4.7 1.79-9.81 1.42-14.74 1.49-2.93-.05-5.9.11-8.77-.53-2.51-.87-4.39-2.86-6.47-4.42-4.5-3.74-10.06-5.83-14.81-9.19-7.2-5.05-14.78-9.77-20.69-16.37-5.21-5.78-10.33-11.63-15.57-17.37-8.84-9.56-14.17-21.59-20.82-32.64z" transform="matrix(.26458 0 0 .26458 -108.49 -3.791)"/><path style="fill:#d96c72;stroke:#d96c72;stroke-width:.30000001" d="M514.13 444.08c7.3-3.19 14.76-6.42 22.74-7.37 6.65 11.05 11.98 23.08 20.82 32.64 5.24 5.74 10.36 11.59 15.57 17.37 5.91 6.6 13.49 11.32 20.69 16.37 4.75 3.36 10.31 5.45 14.81 9.19 2.08 1.56 3.96 3.55 6.47 4.42 2.87.64 5.84.48 8.77.53 4.93-.07 10.04.3 14.74-1.49 4.29-1.57 8.47-3.41 12.57-5.41 8.48-4.26 17.17-8.39 24.45-14.58 9.73-8.25 18.32-17.78 26.08-27.88 6.82-8.85 11.31-19.29 14.16-30.04 4.3.3 8.4 1.65 12.58 2.63 6.68 1.45 13.31 3.4 19.49 6.36 8.35 4.64 16.32 10.25 22.51 17.61 8.72 10.49 15.23 22.57 21.24 34.76 11.46 19.63 17.46 41.71 24.89 63.02 2.89 10.52 5.05 21.24 8.34 31.66 2.33 10.63 4.65 21.3 5.9 32.12 1.08 11.04 4.32 21.85 4.07 33.02-.14 6.21.38 12.58-1.37 18.62-2.09 7.01-1.71 14.59-4.64 21.37-2.91 7.91-7.36 15.09-11.88 22.15-2.12 3.03-1.36 7.24-3.93 10.01-4.69 5.63-9.12 11.67-15.29 15.78-4.63 3.31-9.73 5.99-15.09 7.87-4.39 1.56-9.09 1.21-13.65 1.21.11 9.32-.03 18.65.62 27.96.02 17.32 2.1 34.55 4.55 51.67 5.17 13.67 14.62 25.71 17.11 40.37.06 3.78-2.64 6.83-4.67 9.79-3.57 4.5-6.7 9.3-10.03 13.97-4.71 5.62-2.5 13.41-2.6 20.09.04.58.1 1.75.14 2.33-3.19.47-6.36 1.23-9.15 2.87-19.29 11.09-41.02 17.04-62.72 21.27-32.18 5.16-64.84 8.43-97.46 6.53-14.27-1.21-28.43-3.53-42.66-5.16-9.35-1.51-18.9-2.27-27.98-5.1-7.06-2.63-14.65-3.43-21.64-6.3-11.04-4.34-22.95-7.12-32.65-14.25-.13-5.71-4.26-10.24-4.29-15.91-5.24-4.81-9.43-10.59-13.3-16.52-2.52-3.44-1.2-7.87-.61-11.7 2.23-10.41 5.2-20.65 8.27-30.84 1.36-4.88 6.23-7.96 6.86-13.12 1.54-7.96 3.29-15.94 3.58-24.07.31-14.31-.15-28.6-.39-42.9-.1-5.72-2.3-11.29-1.48-17.04-4.61-2.45-9.37-4.82-13.12-8.55-9.06-8.31-17.67-17.32-24.03-27.9-7.22-17.27-12.64-35.66-12.63-54.53.12-17.54-.96-35.32 2.56-52.61 2.09-6.61 1.21-13.63 2.27-20.41 2.48-20.4 3.82-41.06 9.23-60.97 1.77-9.99 6.58-19.01 10.97-28.03 4.91-8.77 10.94-16.92 17.71-24.34 4.61-4.39 8.9-9.24 14.38-12.58 9.1-5.76 18.16-11.74 28.12-15.96m62.52 74.6-1.04-.04c-.81 9.37-.05 18.79-.37 28.19-7.63-1.74-15.51-1.53-23.28-1.76-7.52.35-16.33 2.55-20.2 9.69-3.2 5.15-7.48 9.65-9.74 15.34-2.58 6.43-5.85 12.59-7.65 19.31-2.07 7.82-6.32 14.83-8.34 22.68-4.03 11.03-6.87 22.48-11.71 33.2-2.25 5.44-5.4 10.69-5.99 16.65-4.61 4.66-6.79 10.98-9.74 16.7-1.77 3.85-4.02 7.51-5.33 11.56-1.04 4.81.71 9.96 3.93 13.6 3.28 3.71 6.06 7.93 10.03 10.99 5.03 3.94 10.88 6.66 16.63 9.36 5.97 2.87 12.75 2.35 19.18 2.26 4.61-.06 8.39-3.01 12.36-4.98 1.5-1.08 3.85-1.69 4.11-3.81 1.74-8.61 2.5-17.39 3.99-26.05.25-1.6 0-3.21-.24-4.78 3.45-3.66 3.29-9.09 4.09-13.74 9.24-2.98 19.09-2.68 28.62-4.04.27 3.01-1.13 7.16 2.01 9.08 5.62 3.67 12.71 2.01 19.01 2.05 26.68-.09 53.37-.04 80.05-.02 2.1-.03 4.19-.35 6.27-.72 4.77 4.21 11.5 4.07 17.44 3.34 2.81 7.09 4.19 14.65 6.77 21.83 1.92 5.66 4.11 11.96 9.94 14.7 3.58.04 6.99-1.44 10.42-2.36 4.52-1.46 9.41-1.42 13.83-3.23 5.22-2.22 9.86-5.52 14.86-8.15 6.57-3.41 13-7.52 17.73-13.3 1.43-1.57.35-3.78-.06-5.52-2.41-7.18-4.57-14.44-7.55-21.4-1.49-3.5-2.6-7.39-5.74-9.82 5.61-5.02 2.91-13.04 1.93-19.4-4.89-23.97-8.77-48.38-17.78-71.24-2.4-4.43-4.64-9.2-8.47-12.58-5.04-2.01-8.51 2.84-11.64 5.9-2.27-5.02-3.84-10.31-5.68-15.48-1.27-3.15-2.75-6.51-5.57-8.56-3.72-1.28-7.57.11-10.83 1.93-1.59-3.45-2.71-7.78-6.44-9.54-4.48-1.21-8.29 2.05-11.55 4.62-.51-4.17 1.57-10.09-2.55-12.88-5.06-1.08-10.24-.56-15.36-.64-26.34-.03-52.67 0-79-.01-3.79.13-7.81-.66-11.35 1.07Z" transform="matrix(.26458 0 0 .26458 -108.49 -3.791)"/><path style="fill:#dadada;stroke:#dadada;stroke-width:.30000001" d="M625.14 440.72c.91 0 1.82-.03 2.75-.06 5.43 5.77 9.43 12.81 15.54 17.95 8.25 7.02 16.79 14.04 26.9 18.22-9.55 9.98-21.55 17.03-32.96 24.63-2.28 1.34-4.56 3.2-7.31 3.28-3.34-.84-6.14-2.99-9.09-4.66-12.6-7.72-26.64-13.6-36.95-24.52 11.22-2.38 21.28-9.19 28.7-17.82 4.59-5.32 9.5-10.54 12.42-17.02z" transform="matrix(.26458 0 0 .26458 -108.49 -3.791)"/><path style="fill:#182727;stroke:#182727;stroke-width:.30000001" d="M576.65 518.68c3.54-1.73 7.56-.94 11.35-1.07 26.33.01 52.66-.02 79 .01 5.12.08 10.3-.44 15.36.64-8.41 1.15-16.9.54-25.36.65-26.78.02-53.58.26-80.35-.23z" transform="matrix(.26458 0 0 .26458 -108.49 -3.791)"/><path style="fill:#303030;stroke:#1d272b;stroke-width:1.39464569;stroke-miterlimit:4;stroke-dasharray:none;stroke-opacity:1" d="M680.928 520.22c4.066 2.758 2.013 8.607 2.516 12.727a169.23 169.23 0 0 1-.296 8.052c-.355-.583.43 9.39.074 8.817-.394 28.01-.634 44.892-.93 72.903-.03 3.429-.288 7.57.225 10.949.069 12.084.01 23.415.03 35.498.039 3.429-.228 6.857-.691 10.266-2.053.366-4.115.682-6.188.711-26.328-.02-52.666-.069-78.994.02-6.217-.04-13.213 1.6-18.76-2.025-3.098-1.897-1.716-5.998-1.982-8.972 6.483-.454 13.016-.8 19.36-2.341 8.399-2.036 17.675-.86 25.43-5.237 2.142-1.185 4.412-2.213 6.316-3.794.642-3.152.05-7.42-3.256-8.843-3.168-.86-6.543-.365-9.71-1.245-4.53-1.195-8.94-2.816-13.46-4.07-4.836-1.502-10.036-2.589-14.082-5.83-2.694-2.144-5.319-4.367-7.974-6.55 1.362-2.016 2.21-5.099 4.944-5.573 8.724-.079 17.684.505 26.437.178 5.93.237 13.515-2.212 17.867-6.056 1.184-4.169-2.062-7.321-4.805-9.752 1.57-.978 1.276-2.056 2.658-3.3.493-3.26 2.146-9.084-1.475-10.595-7.57-5.276-17.409-3.657-25.688-6.77-6.049-2.272-12.512-1.706-17.998-5.313-2.191-1.225-4.446-3.98-2.117-5.412 4.302-2.757 9.7-2.707 14.565-1.818 8.418 1.521 16.825 3.448 25.42 3.646 4.658.583 10.026-.109 13.43-3.616 1.481-2.866 1.52-6.62.583-9.634-7.312-8.734-18.64-13.269-29.762-14.544-9.227-.72-17.097-.747-26.156-2.515.315-9.288 1.05-18.348 1.85-27.605l1.521-2.684c26.417.484 49.646.99 76.073.97 8.348-.109 16.726.494 25.025-.642z" transform="matrix(.26458 0 0 .26458 -108.49 -3.791)"/><path style="fill:#f2c5b2;stroke:#f2c5b2;stroke-width:.30000001" d="M684.91 531.14c3.26-2.57 7.07-5.83 11.55-4.62 3.73 1.76 4.85 6.09 6.44 9.54 3.26-1.82 7.11-3.21 10.83-1.93 2.82 2.05 4.3 5.41 5.57 8.56 1.84 5.17 3.41 10.46 5.68 15.48 3.13-3.06 6.6-7.91 11.64-5.9 3.83 3.38 6.07 8.15 8.47 12.58 9.01 22.86 12.89 47.27 17.78 71.24.98 6.36 3.68 14.38-1.93 19.4-3.84 3.42-8.41 5.86-12.58 8.84-5.69 4.01-11.95 7.16-18.51 9.47-6.12 2.15-12.66 2.87-18.64 5.43-3.4 1.42-6.86 2.77-10.47 3.51-5.94.73-12.67.87-17.44-3.34.47-3.45.74-6.92.7-10.39-.02-12.23.04-24.45-.03-36.68.43-14.44.04-28.9.21-43.34.67-16.56-.07-33.14.43-49.7.17-2.72.26-5.44.3-8.15zM531.76 554.76c3.87-7.14 12.68-9.34 20.2-9.69 7.77.23 15.65.02 23.28 1.76 9.18 1.79 18.41 3.57 27.76 4.3 11.27 1.29 22.75 5.88 30.16 14.72.95 3.05.91 6.85-.59 9.75-3.45 3.55-8.89 4.25-13.61 3.66-8.71-.2-17.23-2.15-25.76-3.69-4.93-.9-10.4-.95-14.76 1.84-2.36 1.45-1.58 5.24.64 6.48 5.56 3.65 12.36 4.33 18.49 6.63 8.39 3.15 18.11.76 25.78 6.1 3.67 1.53 3.5 5.92 3 9.22-1.4 1.26-3.11 2.1-4.7 3.09 2.78 2.46 6.32 5.4 5.12 9.62-4.41 3.89-10.34 6.87-16.35 6.63-5.48-.59-10.98-.33-16.47-.43-3.44-.02-6.94-.63-10.32.25-2.77.48-3.63 3.6-5.01 5.64 2.69 2.21 5.35 4.46 8.08 6.63 4.1 3.28 9.37 4.38 14.27 5.9 4.58 1.27 9.05 2.91 13.64 4.12 3.21.89 6.63.39 9.84 1.26 3.35 1.44 3.95 5.76 3.3 8.95-1.93 1.6-4.23 2.64-6.4 3.84-7.86 4.43-17.26 3.24-25.77 5.3-6.43 1.56-13.05 1.91-19.62 2.37-9.53 1.36-19.38 1.06-28.62 4.04-.8 4.65-.64 10.08-4.09 13.74-7.69 4.97-17.35 5.06-25.97 2.91-5.68-1.69-10.54-5.25-15.34-8.6-6.52-4.62-11.5-11.43-13.61-19.16.59-5.96 3.74-11.21 5.99-16.65 4.84-10.72 7.68-22.17 11.71-33.2 2.02-7.85 6.27-14.86 8.34-22.68 1.8-6.72 5.07-12.88 7.65-19.31 2.26-5.69 6.54-10.19 9.74-15.34z" transform="matrix(.26458 0 0 .26458 -108.49 -3.791)"/><path style="fill:#fff;stroke:#fff;stroke-width:.30000001" d="M748.36 664.33c4.17-2.98 8.74-5.42 12.58-8.84 3.14 2.43 4.25 6.32 5.74 9.82 2.98 6.96 5.14 14.22 7.55 21.4.41 1.74 1.49 3.95.06 5.52-4.73 5.78-11.16 9.89-17.73 13.3-5 2.63-9.64 5.93-14.86 8.15-4.42 1.81-9.31 1.77-13.83 3.23-3.43.92-6.84 2.4-10.42 2.36-5.83-2.74-8.02-9.04-9.94-14.7-2.58-7.18-3.96-14.74-6.77-21.83 3.61-.74 7.07-2.09 10.47-3.51 5.98-2.56 12.52-3.28 18.64-5.43 6.56-2.31 12.82-5.46 18.51-9.47zM488.33 661.94c2.11 7.73 7.09 14.54 13.61 19.16 4.8 3.35 9.66 6.91 15.34 8.6 8.62 2.15 18.28 2.06 25.97-2.91.24 1.57.49 3.18.24 4.78-1.49 8.66-2.25 17.44-3.99 26.05-.26 2.12-2.61 2.73-4.11 3.81-3.97 1.97-7.75 4.92-12.36 4.98-6.43.09-13.21.61-19.18-2.26-5.75-2.7-11.6-5.42-16.63-9.36-3.97-3.06-6.75-7.28-10.03-10.99-3.22-3.64-4.97-8.79-3.93-13.6 1.31-4.05 3.56-7.71 5.33-11.56 2.95-5.72 5.13-12.04 9.74-16.7z" transform="matrix(.26458 0 0 .26458 -108.49 -3.791)"/><path style="fill:#f29c9f;stroke:#f29c9f;stroke-width:.30000001" d="M774.15 919.87c.67 5.02.79 10.12 1.92 15.09.16 2.36 1.66 5.57-.85 7.19-5.69 4.46-11.17 9.49-18.06 12.05-7.85 2.91-15.55 6.35-23.72 8.33-14.21 3.59-28.91 4.36-43.35 6.67-12.22 1.02-24.43 2.23-36.64 3.33-27.06 3.03-54.47 1.08-81.21-3.74-17.12-2.37-34.01-5.98-50.97-9.24-5.09-.95-10.07-2.34-15.1-3.49-9.31-2.15-17.65-6.96-26.17-11.09-1.69-.9-3.49-1.76-4.75-3.24-.68-5.33.05-10.8 1.39-15.97.32-1.82 2.12-2.62 3.39-3.7 9.7 7.13 21.61 9.91 32.65 14.25 6.99 2.87 14.58 3.67 21.64 6.3 9.08 2.83 18.63 3.59 27.98 5.1 14.23 1.63 28.39 3.95 42.66 5.16 32.62 1.9 65.28-1.37 97.46-6.53 21.7-4.23 43.43-10.18 62.72-21.27 2.79-1.64 5.96-2.4 9.15-2.87-.04-.58-.1-1.75-.14-2.33z" transform="matrix(.26458 0 0 .26458 -108.49 -3.791)"/><path style="fill:#2f2f2f;stroke:#2f2f2f;stroke-width:13.5269289;stroke-miterlimit:4;stroke-dasharray:none" d="M1386.528 37.09a53.77 53.77 0 0 0-1.756.024c-5.99.07-11.99-.15-17.98.24-10.41 1.02-20.94 1.27-31.17 3.65-5 .89-9.96 1.98-14.94 2.91-10.14.92-19.43 5.28-29.03 8.28-7.69 3.09-15.51 6.539-21.55 12.369-3.83 3.54-8.27 6.37-11.89 10.14-17.16 17.16-29.78 38.33-39.53 60.43-4.43 11.73-10.029 22.992-14.109 34.862-3.81 10.15-6.381 20.718-8.701 31.298-3.32 19.77-4.49 40.07-1.87 59.99.78 4.94 1.68 10.05 4.43 14.33 2.93 4.28 5.73 8.77 9.85 12.04 0 4.57.23 9.41 2.59 13.46 2.92 5.56 8.091 9.37 13.031 13.02 7.48 5.36 16.7 7.22 24.84 11.27 4.77 2.25 3.82 8.52 6.59 12.31 7.25 9.91 18.029 16.14 27.719 23.32 4.26 3.22 8.98 5.74 13.71 8.2 11.49 5.82 22.891 11.811 34.061 18.201-.14 7.85-1.57 15.75-4.66 22.99-1.67.16-3.431.32-4.701 1.54-4.91 4.06-9.41 8.6-14.21 12.78-2.83 2.68-6.13 5.04-8.08 8.5-5.67.33-11.36 1.29-16.53 3.73-7.98.95-15.439 4.18-22.739 7.37-9.96 4.22-19.02 10.2-28.12 15.96-5.48 3.34-9.77 8.19-14.38 12.58-6.77 7.42-12.8 15.57-17.71 24.34-4.39 9.02-9.201 18.04-10.971 28.03-5.41 19.91-6.749 40.57-9.229 60.97-1.06 6.78-.181 13.8-2.271 20.41-3.52 17.29-2.439 35.07-2.559 52.61-.01 18.87 5.409 37.26 12.629 54.53 6.36 10.58 14.971 19.59 24.031 27.9 3.75 3.73 8.51 6.1 13.12 8.55-.82 5.75 1.38 11.32 1.48 17.04.24 14.3.698 28.59.388 42.9-.29 8.13-2.04 16.109-3.58 24.069-.63 5.16-5.499 8.241-6.859 13.121-3.07 10.19-6.04 20.43-8.27 30.84-.59 3.83-1.91 8.26.61 11.7 3.87 5.93 8.06 11.71 13.3 16.52.03 5.67 4.16 10.199 4.29 15.909-1.27 1.08-3.069 1.88-3.389 3.7-1.34 5.17-2.07 10.642-1.39 15.972 1.26 1.48 3.06 2.338 4.75 3.238 8.52 4.13 16.86 8.94 26.17 11.09 5.03 1.15 10.009 2.54 15.099 3.49 16.96 3.26 33.85 6.87 50.97 9.24 26.74 4.82 54.15 6.77 81.21 3.74 12.21-1.1 24.42-2.31 36.64-3.33 14.44-2.31 29.14-3.08 43.35-6.67 8.17-1.98 15.87-5.42 23.72-8.33 6.89-2.56 12.371-7.588 18.061-12.048 2.51-1.62 1.01-4.832.85-7.192-1.13-4.97-1.25-10.07-1.92-15.09.1-6.68-2.11-14.47 2.6-20.09 3.33-4.67 6.459-9.47 10.029-13.97 2.03-2.96 4.73-6.01 4.67-9.79-2.49-14.66-11.94-26.698-17.11-40.368-2.45-17.12-4.53-34.35-4.55-51.67-.65-9.31-.51-18.641-.62-27.961 4.56 0 9.26.349 13.65-1.211 5.36-1.88 10.46-4.56 15.09-7.87 6.17-4.11 10.6-10.149 15.29-15.779 2.57-2.77 1.811-6.98 3.931-10.01 4.52-7.06 8.97-14.24 11.88-22.15 2.93-6.78 2.55-14.36 4.64-21.37 1.75-6.04 1.229-12.41 1.369-18.62.25-11.17-2.99-21.98-4.07-33.02-1.25-10.82-3.569-21.49-5.899-32.12-3.29-10.42-5.452-21.14-8.342-31.66-7.43-21.31-13.428-43.39-24.888-63.02-6.01-12.19-12.52-24.27-21.24-34.76-6.19-7.36-14.16-12.97-22.51-17.61-6.18-2.96-12.81-4.91-19.49-6.36-4.18-.98-8.28-2.33-12.58-2.63-5.53-.65-10.842-2.47-16.382-2.96-8.53-8.29-16.96-16.701-25.41-25.071-1.47-1.68-4.188-2.54-5.818-.58-3.08-7.02-5.38-14.35-6.42-21.95 16.89-6.44 31.54-17.18 47.01-26.3 10.7-7.81 21.099-16.13 30.289-25.71 3.42-3.86 8.83-4.048 13.4-5.608 6.39-1.94 11.441-6.502 16.791-10.282 2.95-2.33 6.17-4.45 8.53-7.42 1.79-2.91 2.3-6.379 3.52-9.539.83-2.67 2.229-5.21 2.519-8.03 1.88-2.27 4.061-4.32 5.771-6.73 6.3-13.99 7.309-29.52 9.049-44.57.04-7.39 1.19-14.74.89-22.13-.69-12.52-1.98-25.1-5.39-37.21-.8-4.31-2.79-8.36-2.93-12.78-.2-4.21-2.22-8-3.47-11.95-3.33-9.98-6.81-19.961-11.54-29.371-7.7-16.32-16.64-32.109-27.35-46.649-4.38-4.95-9.299-9.38-13.759-14.23-3.49-5.72-9.98-8.201-15.4-11.621-7.27-4.36-15.24-7.28-23.34-9.68-9.56-3.76-19.82-4.88-29.8-7-8.617-1.519-17.233-3.608-26.005-3.633zm.703 174.684v.004a93.094 93.094 0 0 0-.004-.004zm-124.328 25.03a161.904 161.904 0 0 1 0 0zm166.36 15.64c.21.289.34.632.431.998-.09-.366-.221-.71-.431-.998zm-211.502 5.047a17.493 17.493 0 0 0-.002 0zm-2.479 3.334zm225.3 265.705zm-119.589 2.933c0 3.525.077 7.051.098 10.579-.02-3.528-.1-7.054-.098-10.579zm128.928 6.204c-.425.21-.84.43-1.248.658v-.002a28 28 0 0 1 1.248-.657zm28.168 16.728zm-105.487 98.49zm-50.87 18.389a11.308 11.308 0 0 1-.003 0zm126.661 19.123c.565 1.818 1.08 3.651 1.59 5.488.764 2.756 1.513 5.517 2.383 8.24-.87-2.723-1.619-5.484-2.383-8.24-.51-1.837-1.025-3.67-1.59-5.488zm8.985 25.848z" transform="matrix(.26458 0 0 .26458 -108.49 -3.791)"/><path d="M1336.982 40.74c10.23-2.38 20.76-2.63 31.17-3.65 5.99-.39 11.99-.17 17.98-.24 9.38-.28 18.57 1.99 27.76 3.61 9.98 2.12 20.24 3.24 29.8 7 8.1 2.4 16.07 5.32 23.34 9.68 5.42 3.42 11.91 5.9 15.4 11.62 4.46 4.85 9.38 9.28 13.76 14.23 10.71 14.54 19.65 30.33 27.35 46.65 4.73 9.41 8.21 19.39 11.54 29.37 1.25 3.95 3.27 7.74 3.47 11.95.14 4.42 2.13 8.47 2.93 12.78 3.41 12.11 4.7 24.69 5.39 37.21.3 7.39-.85 14.74-.89 22.13-1.74 15.05-2.75 30.58-9.05 44.57-1.71 2.41-3.89 4.46-5.77 6.73.03-6.89.48-13.97-1.84-20.59-1.49-6.18-3.17-13.58-9.69-16.32-4.01-.66-8.04 1.37-10.48 4.5a78.609 78.609 0 0 1-22.43 20.09c-.72-3.33-.66-6.74-.42-10.11.51-8.83-.48-17.63-1.53-26.38-7.07-.12-14.25.01-21.12-1.93-18.35-4.08-37.38-7.46-53.62-17.51-7.2-4.81-15.17-8.54-21.44-14.62 2.62 6.52 5.97 13.03 11.41 17.66 9.1 8.41 18.88 16.24 29.71 22.33 1.64.62 1.36 2.54 1.74 3.94-9.35.37-18.68 2.23-28.06 1.26-5.41-.59-10.76-1.84-16.23-1.62-17.02.21-33.94-2.95-50.12-8.06-16.25-6.89-31-17.09-43.86-29.13-7.13-5.82-12.9-13.05-19.18-19.72-4.26-3.85-7.09-8.92-10.88-13.19-1.89 8.21-1.11 16.67-1.25 25.01.29 11.85 1.51 23.7 4.06 35.28 1.63 10.2 4.33 20.23 8.42 29.73-9.23.36-18.97-1.06-26.59-6.64-4.21-3.24-9.49-4.89-13.21-8.77-2.55-2.54-5.41-5.66-9.41-5.1-3.98-.47-6.59 3.14-8.5 6.07-4.51 8.18-6.97 17.48-7 26.83-4.12-3.27-6.92-7.76-9.85-12.04-2.75-4.28-3.65-9.39-4.43-14.33-2.62-19.92-1.45-40.22 1.87-59.99 2.32-10.58 4.89-21.15 8.7-31.3 4.08-11.87 9.68-23.13 14.11-34.86 9.75-22.1 22.37-43.27 39.53-60.43 3.62-3.77 8.06-6.6 11.89-10.14 6.04-5.83 13.86-9.28 21.55-12.37 9.6-3 18.89-7.36 29.03-8.28 4.98-.93 9.94-2.02 14.94-2.91z" style="fill:#2f2f2f;stroke:#2f2f2f;stroke-width:.30000001" transform="matrix(.26458 0 0 .26458 -108.49 -3.791)"/><path d="M1263.122 184.98c3.79 4.27 6.62 9.34 10.88 13.19 6.28 6.67 12.05 13.9 19.18 19.72 12.86 12.04 27.61 22.24 43.86 29.13 16.18 5.11 33.1 8.27 50.12 8.06 5.47-.22 10.82 1.03 16.23 1.62 9.38.97 18.71-.89 28.06-1.26-.38-1.4-.1-3.32-1.74-3.94-10.83-6.09-20.61-13.92-29.71-22.33-5.44-4.63-8.79-11.14-11.41-17.66 6.27 6.08 14.24 9.81 21.44 14.62 16.24 10.05 35.27 13.43 53.62 17.51 6.87 1.94 14.05 1.81 21.12 1.93 1.05 8.75 2.04 17.55 1.53 26.38-.24 3.37-.3 6.78.42 10.11a78.609 78.609 0 0 0 22.43-20.09c2.44-3.13 6.47-5.16 10.48-4.5 6.52 2.74 8.2 10.14 9.69 16.32 2.32 6.62 1.87 13.7 1.84 20.59-.29 2.82-1.69 5.36-2.52 8.03-1.22 3.16-1.73 6.63-3.52 9.54-2.36 2.97-5.58 5.09-8.53 7.42-5.35 3.78-10.4 8.34-16.79 10.28-4.57 1.56-9.98 1.75-13.4 5.61-9.19 9.58-19.59 17.9-30.29 25.71-15.47 9.12-30.12 19.86-47.01 26.3 1.04 7.6 3.34 14.93 6.42 21.95-6.52 6-14.01 10.78-20.92 16.29-6.45 5.15-13.53 9.51-19.58 15.15-.93.03-1.84.06-2.75.06-13.53-4.28-24.87-13.28-35.77-22.07-3.31-2.48-6.58-5.09-8.98-8.49 3.09-7.24 4.52-15.14 4.66-22.99-11.17-6.39-22.57-12.38-34.06-18.2-4.73-2.46-9.45-4.98-13.71-8.2-9.69-7.18-20.47-13.41-27.72-23.32-2.77-3.79-1.82-10.06-6.59-12.31-8.14-4.05-17.36-5.91-24.84-11.27-4.94-3.65-10.11-7.46-13.03-13.02-2.36-4.05-2.59-8.89-2.59-13.46.03-9.35 2.49-18.65 7-26.83 1.91-2.93 4.52-6.54 8.5-6.07 4-.56 6.86 2.56 9.41 5.1 3.72 3.88 9 5.53 13.21 8.77 7.62 5.58 17.36 7 26.59 6.64-4.09-9.5-6.79-19.53-8.42-29.73-2.55-11.58-3.77-23.43-4.06-35.28.14-8.34-.64-16.8 1.25-25.01z" style="fill:#f2c5b2;stroke:#f2c5b2;stroke-width:.30000001" transform="matrix(.26458 0 0 .26458 -108.49 -3.791)"/><path d="M1415.522 409.22c1.63-1.96 4.35-1.1 5.82.58 8.45 8.37 16.88 16.78 25.41 25.07-2.22 8.37-7.22 15.56-12.18 22.52-5.26 6.85-10.43 13.87-17.11 19.44-10.11-4.18-18.65-11.2-26.9-18.22-6.11-5.14-10.11-12.18-15.54-17.95 6.05-5.64 13.13-10 19.58-15.15 6.91-5.51 14.4-10.29 20.92-16.29zM1322.822 411.7c1.27-1.22 3.03-1.38 4.7-1.54 2.4 3.4 5.67 6.01 8.98 8.49 10.9 8.79 22.24 17.79 35.77 22.07-2.92 6.48-7.83 11.7-12.42 17.02-7.42 8.63-17.48 15.44-28.7 17.82-8.03-8.58-16.27-17.13-22.39-27.22-3.08-4.93-6.47-9.77-8.23-15.36 1.95-3.46 5.25-5.82 8.08-8.5 4.8-4.18 9.3-8.72 14.21-12.78z" style="fill:#fff;stroke:#fff;stroke-width:.30000001" transform="matrix(.26458 0 0 .26458 -108.49 -3.791)"/><path d="M1284.002 436.71c5.17-2.44 10.86-3.4 16.53-3.73 1.76 5.59 5.15 10.43 8.23 15.36 6.12 10.09 14.36 18.64 22.39 27.22 10.31 10.92 24.35 16.8 36.95 24.52 2.95 1.67 5.75 3.82 9.09 4.66 2.75-.08 5.03-1.94 7.31-3.28 11.41-7.6 23.41-14.65 32.96-24.63 6.68-5.57 11.85-12.59 17.11-19.44 4.96-6.96 9.96-14.15 12.18-22.52 5.54.49 10.85 2.31 16.38 2.96-2.85 10.75-7.34 21.19-14.16 30.04-7.76 10.1-16.35 19.63-26.08 27.88-7.28 6.19-15.97 10.32-24.45 14.58-4.1 2-8.28 3.84-12.57 5.41-4.7 1.79-9.81 1.42-14.74 1.49-2.93-.05-5.9.11-8.77-.53-2.51-.87-4.39-2.86-6.47-4.42-4.5-3.74-10.06-5.83-14.81-9.19-7.2-5.05-14.78-9.77-20.69-16.37-5.21-5.78-10.33-11.63-15.57-17.37-8.84-9.56-14.17-21.59-20.82-32.64z" style="fill:#f29c9f;stroke:#f29c9f;stroke-width:.30000001" transform="matrix(.26458 0 0 .26458 -108.49 -3.791)"/><path d="M1261.262 444.08c7.3-3.19 14.76-6.42 22.74-7.37 6.65 11.05 11.98 23.08 20.82 32.64 5.24 5.74 10.36 11.59 15.57 17.37 5.91 6.6 13.49 11.32 20.69 16.37 4.75 3.36 10.31 5.45 14.81 9.19 2.08 1.56 3.96 3.55 6.47 4.42 2.87.64 5.84.48 8.77.53 4.93-.07 10.04.3 14.74-1.49 4.29-1.57 8.47-3.41 12.57-5.41 8.48-4.26 17.17-8.39 24.45-14.58 9.73-8.25 18.32-17.78 26.08-27.88 6.82-8.85 11.31-19.29 14.16-30.04 4.3.3 8.4 1.65 12.58 2.63 6.68 1.45 13.31 3.4 19.49 6.36 8.35 4.64 16.32 10.25 22.51 17.61 8.72 10.49 15.23 22.57 21.24 34.76 11.46 19.63 17.46 41.71 24.89 63.02 2.89 10.52 5.05 21.24 8.34 31.66 2.33 10.63 4.65 21.3 5.9 32.12 1.08 11.04 4.32 21.85 4.07 33.02-.14 6.21.38 12.58-1.37 18.62-2.09 7.01-1.71 14.59-4.64 21.37-2.91 7.91-7.36 15.09-11.88 22.15-2.12 3.03-1.36 7.24-3.93 10.01-4.69 5.63-9.12 11.67-15.29 15.78-4.63 3.31-9.73 5.99-15.09 7.87-4.39 1.56-9.09 1.21-13.65 1.21.11 9.32-.03 18.65.62 27.96.02 17.32 2.1 34.55 4.55 51.67 5.17 13.67 14.62 25.71 17.11 40.37.06 3.78-2.64 6.83-4.67 9.79-3.57 4.5-6.7 9.3-10.03 13.97-4.71 5.62-2.5 13.41-2.6 20.09.04.58.1 1.75.14 2.33-3.19.47-6.36 1.23-9.15 2.87-19.29 11.09-41.02 17.04-62.72 21.27-32.18 5.16-64.84 8.43-97.46 6.53-14.27-1.21-28.43-3.53-42.66-5.16-9.35-1.51-18.9-2.27-27.98-5.1-7.06-2.63-14.65-3.43-21.64-6.3-11.04-4.34-22.95-7.12-32.65-14.25-.13-5.71-4.26-10.24-4.29-15.91-5.24-4.81-9.43-10.59-13.3-16.52-2.52-3.44-1.2-7.87-.61-11.7 2.23-10.41 5.2-20.65 8.27-30.84 1.36-4.88 6.23-7.96 6.86-13.12 1.54-7.96 3.29-15.94 3.58-24.07.31-14.31-.15-28.6-.39-42.9-.1-5.72-2.3-11.29-1.48-17.04-4.61-2.45-9.37-4.82-13.12-8.55-9.06-8.31-17.67-17.32-24.03-27.9-7.22-17.27-12.64-35.66-12.63-54.53.12-17.54-.96-35.32 2.56-52.61 2.09-6.61 1.21-13.63 2.27-20.41 2.48-20.4 3.82-41.06 9.23-60.97 1.77-9.99 6.58-19.01 10.97-28.03 4.91-8.77 10.94-16.92 17.71-24.34 4.61-4.39 8.9-9.24 14.38-12.58 9.1-5.76 18.16-11.74 28.12-15.96m62.52 74.6-1.04-.04c-.81 9.37-.05 18.79-.37 28.19-7.63-1.74-15.51-1.53-23.28-1.76-7.52.35-16.33 2.55-20.2 9.69-3.2 5.15-7.48 9.65-9.74 15.34-2.58 6.43-5.85 12.59-7.65 19.31-2.07 7.82-6.32 14.83-8.34 22.68-4.03 11.03-6.87 22.48-11.71 33.2-2.25 5.44-5.4 10.69-5.99 16.65-4.61 4.66-6.79 10.98-9.74 16.7-1.77 3.85-4.02 7.51-5.33 11.56-1.04 4.81.71 9.96 3.93 13.6 3.28 3.71 6.06 7.93 10.03 10.99 5.03 3.94 10.88 6.66 16.63 9.36 5.97 2.87 12.75 2.35 19.18 2.26 4.61-.06 8.39-3.01 12.36-4.98 1.5-1.08 3.85-1.69 4.11-3.81 1.74-8.61 2.5-17.39 3.99-26.05.25-1.6 0-3.21-.24-4.78 3.45-3.66 3.29-9.09 4.09-13.74 9.24-2.98 19.09-2.68 28.62-4.04.27 3.01-1.13 7.16 2.01 9.08 5.62 3.67 12.71 2.01 19.01 2.05 26.68-.09 53.37-.04 80.05-.02 2.1-.03 4.19-.35 6.27-.72 4.77 4.21 11.5 4.07 17.44 3.34 2.81 7.09 4.19 14.65 6.77 21.83 1.92 5.66 4.11 11.96 9.94 14.7 3.58.04 6.99-1.44 10.42-2.36 4.52-1.46 9.41-1.42 13.83-3.23 5.22-2.22 9.86-5.52 14.86-8.15 6.57-3.41 13-7.52 17.73-13.3 1.43-1.57.35-3.78-.06-5.52-2.41-7.18-4.57-14.44-7.55-21.4-1.49-3.5-2.6-7.39-5.74-9.82 5.61-5.02 2.91-13.04 1.93-19.4-4.89-23.97-8.77-48.38-17.78-71.24-2.4-4.43-4.64-9.2-8.47-12.58-5.04-2.01-8.51 2.84-11.64 5.9-2.27-5.02-3.84-10.31-5.68-15.48-1.27-3.15-2.75-6.51-5.57-8.56-3.72-1.28-7.57.11-10.83 1.93-1.59-3.45-2.71-7.78-6.44-9.54-4.48-1.21-8.29 2.05-11.55 4.62-.51-4.17 1.57-10.09-2.55-12.88-5.06-1.08-10.24-.56-15.36-.64-26.34-.03-52.67 0-79-.01-3.79.13-7.81-.66-11.35 1.07z" style="fill:#d96c72;stroke:#d96c72;stroke-width:.30000001" transform="matrix(.26458 0 0 .26458 -108.49 -3.791)"/><path d="M1372.272 440.72c.91 0 1.82-.03 2.75-.06 5.43 5.77 9.43 12.81 15.54 17.95 8.25 7.02 16.79 14.04 26.9 18.22-9.55 9.98-21.55 17.03-32.96 24.63-2.28 1.34-4.56 3.2-7.31 3.28-3.34-.84-6.14-2.99-9.09-4.66-12.6-7.72-26.64-13.6-36.95-24.52 11.22-2.38 21.28-9.19 28.7-17.82 4.59-5.32 9.5-10.54 12.42-17.02z" style="fill:#abceb1;fill-opacity:1;stroke:#dadada;stroke-width:.30000001" transform="matrix(.26458 0 0 .26458 -108.49 -3.791)"/><path d="M1323.782 518.68c3.54-1.73 7.56-.94 11.35-1.07 26.33.01 52.66-.02 79 .01 5.12.08 10.3-.44 15.36.64-8.41 1.15-16.9.54-25.36.65-26.78.02-53.58.26-80.35-.23z" style="fill:#182727;stroke:#182727;stroke-width:.30000001" transform="matrix(.26458 0 0 .26458 -108.49 -3.791)"/><path d="M1429.492 518.26c4.12 2.79 2.04 8.71 2.55 12.88-.04 2.71-.13 5.43-.3 8.15-.36-.59-1.07-1.77-1.43-2.35-.4 28.35.11 56.71-.19 85.06-.03 3.47.46 6.91.98 10.33.07 12.23.01 24.45.03 36.68.04 3.47-.23 6.94-.7 10.39-2.08.37-4.17.69-6.27.72-26.68-.02-53.37-.07-80.05.02-6.3-.04-13.39 1.62-19.01-2.05-3.14-1.92-1.74-6.07-2.01-9.08 6.57-.46 13.19-.81 19.62-2.37 8.51-2.06 17.91-.87 25.77-5.3 2.17-1.2 4.47-2.24 6.4-3.84.65-3.19.05-7.51-3.3-8.95-3.21-.87-6.63-.37-9.84-1.26-4.59-1.21-9.06-2.85-13.64-4.12-4.9-1.52-10.17-2.62-14.27-5.9-2.73-2.17-5.39-4.42-8.08-6.63 1.38-2.04 2.24-5.16 5.01-5.64a83.038 83.038 0 0 0 26.79.18c6.01.24 11.94-2.74 16.35-6.63 1.2-4.22-2.34-7.16-5.12-9.62 1.59-.99 3.3-1.83 4.7-3.09.5-3.3.67-7.69-3-9.22-7.67-5.34-17.39-2.95-25.78-6.1-6.13-2.3-12.93-2.98-18.49-6.63-2.22-1.24-3-5.03-.64-6.48 4.36-2.79 9.83-2.74 14.76-1.84 8.53 1.54 17.05 3.49 25.76 3.69 4.72.59 10.16-.11 13.61-3.66 1.5-2.9 1.54-6.7.59-9.75-7.41-8.84-18.89-13.43-30.16-14.72-9.35-.73-18.58-2.51-27.76-4.3.32-9.4-.44-18.82.37-28.19l1.04.04c26.77.49 53.57.25 80.35.23 8.46-.11 16.95.5 25.36-.65z" style="fill:#303030;stroke:#303030;stroke-width:.30000001" transform="matrix(.26458 0 0 .26458 -108.49 -3.791)"/><path d="M1432.042 531.14c3.26-2.57 7.07-5.83 11.55-4.62 3.73 1.76 4.85 6.09 6.44 9.54 3.26-1.82 7.11-3.21 10.83-1.93 2.82 2.05 4.3 5.41 5.57 8.56 1.84 5.17 3.41 10.46 5.68 15.48 3.13-3.06 6.6-7.91 11.64-5.9 3.83 3.38 6.07 8.15 8.47 12.58 9.01 22.86 12.89 47.27 17.78 71.24.98 6.36 3.68 14.38-1.93 19.4-3.84 3.42-8.41 5.86-12.58 8.84-5.69 4.01-11.95 7.16-18.51 9.47-6.12 2.15-12.66 2.87-18.64 5.43-3.4 1.42-6.86 2.77-10.47 3.51-5.94.73-12.67.87-17.44-3.34.47-3.45.74-6.92.7-10.39-.02-12.23.04-24.45-.03-36.68.43-14.44.04-28.9.21-43.34.67-16.56-.07-33.14.43-49.7.17-2.72.26-5.44.3-8.15z" style="fill:#f2c5b2;stroke:#f2c5b2;stroke-width:.30000001" transform="matrix(.26458 0 0 .26458 -108.49 -3.791)"/><path d="M1430.312 536.94c.36.58 1.07 1.76 1.43 2.35-.5 16.56.24 33.14-.43 49.7-.17 14.44.22 28.9-.21 43.34-.52-3.42-1.01-6.86-.98-10.33.3-28.35-.21-56.71.19-85.06z" style="fill:#131a1d;stroke:#131a1d;stroke-width:.30000001" transform="matrix(.26458 0 0 .26458 -108.49 -3.791)"/><path d="M1278.892 554.76c3.87-7.14 12.68-9.34 20.2-9.69 7.77.23 15.65.02 23.28 1.76 9.18 1.79 18.41 3.57 27.76 4.3 11.27 1.29 22.75 5.88 30.16 14.72.95 3.05.91 6.85-.59 9.75-3.45 3.55-8.89 4.25-13.61 3.66-8.71-.2-17.23-2.15-25.76-3.69-4.93-.9-10.4-.95-14.76 1.84-2.36 1.45-1.58 5.24.64 6.48 5.56 3.65 12.36 4.33 18.49 6.63 8.39 3.15 18.11.76 25.78 6.1 3.67 1.53 3.5 5.92 3 9.22-1.4 1.26-3.11 2.1-4.7 3.09 2.78 2.46 6.32 5.4 5.12 9.62-4.41 3.89-10.34 6.87-16.35 6.63-5.48-.59-10.98-.33-16.47-.43-3.44-.02-6.94-.63-10.32.25-2.77.48-3.63 3.6-5.01 5.64 2.69 2.21 5.35 4.46 8.08 6.63 4.1 3.28 9.37 4.38 14.27 5.9 4.58 1.27 9.05 2.91 13.64 4.12 3.21.89 6.63.39 9.84 1.26 3.35 1.44 3.95 5.76 3.3 8.95-1.93 1.6-4.23 2.64-6.4 3.84-7.86 4.43-17.26 3.24-25.77 5.3-6.43 1.56-13.05 1.91-19.62 2.37-9.53 1.36-19.38 1.06-28.62 4.04-.8 4.65-.64 10.08-4.09 13.74-7.69 4.97-17.35 5.06-25.97 2.91-5.68-1.69-10.54-5.25-15.34-8.6-6.52-4.62-11.5-11.43-13.61-19.16.59-5.96 3.74-11.21 5.99-16.65 4.84-10.72 7.68-22.17 11.71-33.2 2.02-7.85 6.27-14.86 8.34-22.68 1.8-6.72 5.07-12.88 7.65-19.31 2.26-5.69 6.54-10.19 9.74-15.34z" style="fill:#f2c5b2;stroke:#f2c5b2;stroke-width:.30000001" transform="matrix(.26458 0 0 .26458 -108.49 -3.791)"/><path d="M1330.762 625c3.38-.88 6.88-.27 10.32-.25 5.49.1 10.99-.16 16.47.43a83.038 83.038 0 0 1-26.79-.18z" style="fill:#151b1d;stroke:#151b1d;stroke-width:.30000001" transform="matrix(.26458 0 0 .26458 -108.49 -3.791)"/><path d="M1495.492 664.33c4.17-2.98 8.74-5.42 12.58-8.84 3.14 2.43 4.25 6.32 5.74 9.82 2.98 6.96 5.14 14.22 7.55 21.4.41 1.74 1.49 3.95.06 5.52-4.73 5.78-11.16 9.89-17.73 13.3-5 2.63-9.64 5.93-14.86 8.15-4.42 1.81-9.31 1.77-13.83 3.23-3.43.92-6.84 2.4-10.42 2.36-5.83-2.74-8.02-9.04-9.94-14.7-2.58-7.18-3.96-14.74-6.77-21.83 3.61-.74 7.07-2.09 10.47-3.51 5.98-2.56 12.52-3.28 18.64-5.43 6.56-2.31 12.82-5.46 18.51-9.47zM1235.462 661.94c2.11 7.73 7.09 14.54 13.61 19.16 4.8 3.35 9.66 6.91 15.34 8.6 8.62 2.15 18.28 2.06 25.97-2.91.24 1.57.49 3.18.24 4.78-1.49 8.66-2.25 17.44-3.99 26.05-.26 2.12-2.61 2.73-4.11 3.81-3.97 1.97-7.75 4.92-12.36 4.98-6.43.09-13.21.61-19.18-2.26-5.75-2.7-11.6-5.42-16.63-9.36-3.97-3.06-6.75-7.28-10.03-10.99-3.22-3.64-4.97-8.79-3.93-13.6 1.31-4.05 3.56-7.71 5.33-11.56 2.95-5.72 5.13-12.04 9.74-16.7z" style="fill:#fff;stroke:#fff;stroke-width:.30000001" transform="matrix(.26458 0 0 .26458 -108.49 -3.791)"/><path d="M1521.282 919.87c.67 5.02.79 10.12 1.92 15.09.16 2.36 1.66 5.57-.85 7.19-5.69 4.46-11.17 9.49-18.06 12.05-7.85 2.91-15.55 6.35-23.72 8.33-14.21 3.59-28.91 4.36-43.35 6.67-12.22 1.02-24.43 2.23-36.64 3.33-27.06 3.03-54.47 1.08-81.21-3.74-17.12-2.37-34.01-5.98-50.97-9.24-5.09-.95-10.07-2.34-15.1-3.49-9.31-2.15-17.65-6.96-26.17-11.09-1.69-.9-3.49-1.76-4.75-3.24-.68-5.33.05-10.8 1.39-15.97.32-1.82 2.12-2.62 3.39-3.7 9.7 7.13 21.61 9.91 32.65 14.25 6.99 2.87 14.58 3.67 21.64 6.3 9.08 2.83 18.63 3.59 27.98 5.1 14.23 1.63 28.39 3.95 42.66 5.16 32.62 1.9 65.28-1.37 97.46-6.53 21.7-4.23 43.43-10.18 62.72-21.27 2.79-1.64 5.96-2.4 9.15-2.87-.04-.58-.1-1.75-.14-2.33z" style="fill:#f29c9f;stroke:#f29c9f;stroke-width:.30000001" transform="matrix(.26458 0 0 .26458 -108.49 -3.791)"/><path style="fill:#706449;fill-opacity:1;stroke:#2f2f2f;stroke-width:.30000001" d="M1336.982 40.74c10.23-2.38 20.76-2.63 31.17-3.65 5.99-.39 11.99-.17 17.98-.24 9.38-.28 18.57 1.99 27.76 3.61 9.98 2.12 20.24 3.24 29.8 7 8.1 2.4 16.07 5.32 23.34 9.68 5.42 3.42 11.91 5.9 15.4 11.62 4.46 4.85 9.38 9.28 13.76 14.23 10.71 14.54 19.65 30.33 27.35 46.65 4.73 9.41 8.21 19.39 11.54 29.37 1.25 3.95 3.27 7.74 3.47 11.95.14 4.42 2.13 8.47 2.93 12.78 3.41 12.11 4.7 24.69 5.39 37.21.3 7.39-.85 14.74-.89 22.13-1.74 15.05-2.75 30.58-9.05 44.57-1.71 2.41-3.89 4.46-5.77 6.73.03-6.89.48-13.97-1.84-20.59-1.49-6.18-3.17-13.58-9.69-16.32-4.01-.66-8.04 1.37-10.48 4.5a78.609 78.609 0 0 1-22.43 20.09c-.72-3.33-.66-6.74-.42-10.11.51-8.83-.48-17.63-1.53-26.38-7.07-.12-14.25.01-21.12-1.93-18.35-4.08-37.38-7.46-53.62-17.51-85.542 149.724-53.823 51.02-43.886 53.39-149.037 109.778-47.427 4.28-72.964-61.63-7.13-5.82-12.9-13.05-19.18-19.72-4.26-3.85-7.09-8.92-10.88-13.19-1.89 8.21-1.11 16.67-1.25 25.01.29 11.85 1.51 23.7 4.06 35.28 1.63 10.2 4.33 20.23 8.42 29.73-9.23.36-18.97-1.06-26.59-6.64-4.21-3.24-9.49-4.89-13.21-8.77-2.55-2.54-5.41-5.66-9.41-5.1-3.98-.47-6.59 3.14-8.5 6.07-4.51 8.18-6.97 17.48-7 26.83-4.12-3.27-6.92-7.76-9.85-12.04-2.75-4.28-3.65-9.39-4.43-14.33-2.62-19.92-1.45-40.22 1.87-59.99 2.32-10.58 4.89-21.15 8.7-31.3 4.08-11.87 9.68-23.13 14.11-34.86 9.75-22.1 22.37-43.27 39.53-60.43 3.62-3.77 8.06-6.6 11.89-10.14 6.04-5.83 13.86-9.28 21.55-12.37 9.6-3 18.89-7.36 29.03-8.28 4.98-.93 9.94-2.02 14.94-2.91z" transform="matrix(.26458 0 0 .26458 -108.49 -3.791)"/><path style="fill:#f1d4c8;fill-opacity:1;stroke:#f2c5b2;stroke-width:.30000001" d="M1263.122 184.98c3.79 4.27 6.62 9.34 10.88 13.19 6.28 6.67 12.05 13.9 19.18 19.72 12.86 12.04 26.742-54.153 42.992-47.263 16.18 5.11 1.848 34.313 18.868 34.103 5.47-.22 12.556 15.788 17.966 16.378 9.38.97 49.094 34.702 58.444 34.332-.38-1.4-90.382 25.327-92.022 24.707-3.484-17.401 58.4-62.105 56.975-72.977 6.27 6.08 23.789 5.469 30.989 10.279 26.657-14.257 17.908 22.111 36.258 26.191 6.87 1.94 14.05 1.81 21.12 1.93 1.05 8.75 2.04 17.55 1.53 26.38-.24 3.37-.3 6.78.42 10.11a78.609 78.609 0 0 0 22.43-20.09c2.44-3.13 6.47-5.16 10.48-4.5 6.52 2.74 8.2 10.14 9.69 16.32 2.32 6.62 1.87 13.7 1.84 20.59-.29 2.82-1.69 5.36-2.52 8.03-1.22 3.16-1.73 6.63-3.52 9.54-2.36 2.97-5.58 5.09-8.53 7.42-5.35 3.78-10.4 8.34-16.79 10.28-4.57 1.56-9.98 1.75-13.4 5.61-9.19 9.58-19.59 17.9-30.29 25.71-15.47 9.12-30.12 19.86-47.01 26.3 1.04 7.6 3.34 14.93 6.42 21.95-6.52 6-14.01 10.78-20.92 16.29-6.45 5.15-13.53 9.51-19.58 15.15-.93.03-1.84.06-2.75.06-13.53-4.28-24.87-13.28-35.77-22.07-3.31-2.48-6.58-5.09-8.98-8.49 3.09-7.24 4.52-15.14 4.66-22.99-11.17-6.39-22.57-12.38-34.06-18.2-4.73-2.46-9.45-4.98-13.71-8.2-9.69-7.18-20.47-13.41-27.72-23.32-2.77-3.79-1.82-10.06-6.59-12.31-8.14-4.05-17.36-5.91-24.84-11.27-4.94-3.65-10.11-7.46-13.03-13.02-2.36-4.05-2.59-8.89-2.59-13.46.03-9.35 2.49-18.65 7-26.83 1.91-2.93 4.52-6.54 8.5-6.07 4-.56 6.86 2.56 9.41 5.1 3.72 3.88 9 5.53 13.21 8.77 7.62 5.58 5.206 3.528 14.436 3.168-4.09-9.5-12.866-32.552-14.496-42.752-2.55-11.58 14.46-6.936 14.17-18.786.14-8.34-.64-16.8 1.25-25.01z" transform="matrix(.26458 0 0 .26458 -108.49 -3.791)"/><path style="fill:#fff;stroke:#fff;stroke-width:.30000001" d="M1415.522 409.22c1.63-1.96 4.35-1.1 5.82.58 8.45 8.37 16.88 16.78 25.41 25.07-2.22 8.37-7.22 15.56-12.18 22.52-5.26 6.85-10.43 13.87-17.11 19.44-10.11-4.18-18.65-11.2-26.9-18.22-6.11-5.14-10.11-12.18-15.54-17.95 6.05-5.64 13.13-10 19.58-15.15 6.91-5.51 14.4-10.29 20.92-16.29zM1322.822 411.7c1.27-1.22 3.03-1.38 4.7-1.54 2.4 3.4 5.67 6.01 8.98 8.49 10.9 8.79 22.24 17.79 35.77 22.07-2.92 6.48-7.83 11.7-12.42 17.02-7.42 8.63-17.48 15.44-28.7 17.82-8.03-8.58-16.27-17.13-22.39-27.22-3.08-4.93-6.47-9.77-8.23-15.36 1.95-3.46 5.25-5.82 8.08-8.5 4.8-4.18 9.3-8.72 14.21-12.78z" transform="matrix(.26458 0 0 .26458 -108.49 -3.791)"/><path style="fill:#d59cf2;fill-opacity:1;stroke:#f29c9f;stroke-width:.30000001" d="M1284.002 436.71c5.17-2.44 10.86-3.4 16.53-3.73 1.76 5.59 5.15 10.43 8.23 15.36 6.12 10.09 14.36 18.64 22.39 27.22 10.31 10.92 24.35 16.8 36.95 24.52 2.95 1.67 5.75 3.82 9.09 4.66 2.75-.08 5.03-1.94 7.31-3.28 11.41-7.6 23.41-14.65 32.96-24.63 6.68-5.57 11.85-12.59 17.11-19.44 4.96-6.96 9.96-14.15 12.18-22.52 5.54.49 10.85 2.31 16.38 2.96-2.85 10.75-7.34 21.19-14.16 30.04-7.76 10.1-16.35 19.63-26.08 27.88-7.28 6.19-15.97 10.32-24.45 14.58-4.1 2-8.28 3.84-12.57 5.41-4.7 1.79-9.81 1.42-14.74 1.49-2.93-.05-5.9.11-8.77-.53-2.51-.87-4.39-2.86-6.47-4.42-4.5-3.74-10.06-5.83-14.81-9.19-7.2-5.05-14.78-9.77-20.69-16.37-5.21-5.78-10.33-11.63-15.57-17.37-8.84-9.56-14.17-21.59-20.82-32.64z" transform="matrix(.26458 0 0 .26458 -108.49 -3.791)"/><path style="fill:#8f63a0;fill-opacity:1;stroke:#d96c72;stroke-width:.30000001" d="M1261.262 444.08c7.3-3.19 14.76-6.42 22.74-7.37 6.65 11.05 11.98 23.08 20.82 32.64 5.24 5.74 10.36 11.59 15.57 17.37 5.91 6.6 13.49 11.32 20.69 16.37 4.75 3.36 10.31 5.45 14.81 9.19 2.08 1.56 3.96 3.55 6.47 4.42 2.87.64 5.84.48 8.77.53 4.93-.07 10.04.3 14.74-1.49 4.29-1.57 8.47-3.41 12.57-5.41 8.48-4.26 17.17-8.39 24.45-14.58 9.73-8.25 18.32-17.78 26.08-27.88 6.82-8.85 11.31-19.29 14.16-30.04 4.3.3 8.4 1.65 12.58 2.63 6.68 1.45 13.31 3.4 19.49 6.36 8.35 4.64 16.32 10.25 22.51 17.61 8.72 10.49 15.23 22.57 21.24 34.76 11.46 19.63 17.46 41.71 24.89 63.02 2.89 10.52 5.05 21.24 8.34 31.66 2.33 10.63 4.65 21.3 5.9 32.12 1.08 11.04 4.32 21.85 4.07 33.02-.14 6.21.38 12.58-1.37 18.62-2.09 7.01-1.71 14.59-4.64 21.37-2.91 7.91-7.36 15.09-11.88 22.15-2.12 3.03-1.36 7.24-3.93 10.01-4.69 5.63-9.12 11.67-15.29 15.78-4.63 3.31-9.73 5.99-15.09 7.87-4.39 1.56-9.09 1.21-13.65 1.21.11 9.32-.03 18.65.62 27.96.02 17.32 2.1 34.55 4.55 51.67 5.17 13.67 14.62 25.71 17.11 40.37.06 3.78-2.64 6.83-4.67 9.79-3.57 4.5-6.7 9.3-10.03 13.97-4.71 5.62-2.5 13.41-2.6 20.09.04.58.1 1.75.14 2.33-3.19.47-6.36 1.23-9.15 2.87-19.29 11.09-41.02 17.04-62.72 21.27-32.18 5.16-64.84 8.43-97.46 6.53-14.27-1.21-28.43-3.53-42.66-5.16-9.35-1.51-18.9-2.27-27.98-5.1-7.06-2.63-14.65-3.43-21.64-6.3-11.04-4.34-22.95-7.12-32.65-14.25-.13-5.71-4.26-10.24-4.29-15.91-5.24-4.81-9.43-10.59-13.3-16.52-2.52-3.44-1.2-7.87-.61-11.7 2.23-10.41 5.2-20.65 8.27-30.84 1.36-4.88 6.23-7.96 6.86-13.12 1.54-7.96 3.29-15.94 3.58-24.07.31-14.31-.15-28.6-.39-42.9-.1-5.72-2.3-11.29-1.48-17.04-4.61-2.45-9.37-4.82-13.12-8.55-9.06-8.31-17.67-17.32-24.03-27.9-7.22-17.27-12.64-35.66-12.63-54.53.12-17.54-.96-35.32 2.56-52.61 2.09-6.61 1.21-13.63 2.27-20.41 2.48-20.4 3.82-41.06 9.23-60.97 1.77-9.99 6.58-19.01 10.97-28.03 4.91-8.77 10.94-16.92 17.71-24.34 4.61-4.39 8.9-9.24 14.38-12.58 9.1-5.76 18.16-11.74 28.12-15.96m62.52 74.6-1.04-.04c-.81 9.37-.05 18.79-.37 28.19-7.63-1.74-15.51-1.53-23.28-1.76-7.52.35-16.33 2.55-20.2 9.69-3.2 5.15-7.48 9.65-9.74 15.34-2.58 6.43-5.85 12.59-7.65 19.31-2.07 7.82-6.32 14.83-8.34 22.68-4.03 11.03-6.87 22.48-11.71 33.2-2.25 5.44-5.4 10.69-5.99 16.65-4.61 4.66-6.79 10.98-9.74 16.7-1.77 3.85-4.02 7.51-5.33 11.56-1.04 4.81.71 9.96 3.93 13.6 3.28 3.71 6.06 7.93 10.03 10.99 5.03 3.94 10.88 6.66 16.63 9.36 5.97 2.87 12.75 2.35 19.18 2.26 4.61-.06 8.39-3.01 12.36-4.98 1.5-1.08 3.85-1.69 4.11-3.81 1.74-8.61 2.5-17.39 3.99-26.05.25-1.6 0-3.21-.24-4.78 3.45-3.66 3.29-9.09 4.09-13.74 9.24-2.98 19.09-2.68 28.62-4.04.27 3.01-1.13 7.16 2.01 9.08 5.62 3.67 12.71 2.01 19.01 2.05 26.68-.09 53.37-.04 80.05-.02 2.1-.03 4.19-.35 6.27-.72 4.77 4.21 11.5 4.07 17.44 3.34 2.81 7.09 4.19 14.65 6.77 21.83 1.92 5.66 4.11 11.96 9.94 14.7 3.58.04 6.99-1.44 10.42-2.36 4.52-1.46 9.41-1.42 13.83-3.23 5.22-2.22 9.86-5.52 14.86-8.15 6.57-3.41 13-7.52 17.73-13.3 1.43-1.57.35-3.78-.06-5.52-2.41-7.18-4.57-14.44-7.55-21.4-1.49-3.5-2.6-7.39-5.74-9.82 5.61-5.02 2.91-13.04 1.93-19.4-4.89-23.97-8.77-48.38-17.78-71.24-2.4-4.43-4.64-9.2-8.47-12.58-5.04-2.01-8.51 2.84-11.64 5.9-2.27-5.02-3.84-10.31-5.68-15.48-1.27-3.15-2.75-6.51-5.57-8.56-3.72-1.28-7.57.11-10.83 1.93-1.59-3.45-2.71-7.78-6.44-9.54-4.48-1.21-8.29 2.05-11.55 4.62-.51-4.17 1.57-10.09-2.55-12.88-5.06-1.08-10.24-.56-15.36-.64-26.34-.03-52.67 0-79-.01-3.79.13-7.81-.66-11.35 1.07z" transform="matrix(.26458 0 0 .26458 -108.49 -3.791)"/><path style="fill:#182727;stroke:#182727;stroke-width:.30000001" d="M1323.782 518.68c3.54-1.73 7.56-.94 11.35-1.07 26.33.01 52.66-.02 79 .01 5.12.08 10.3-.44 15.36.64-8.41 1.15-16.9.54-25.36.65-26.78.02-53.58.26-80.35-.23z" transform="matrix(.26458 0 0 .26458 -108.49 -3.791)"/><path style="fill:#4e4644;fill-opacity:1;stroke:#303030;stroke-width:1.43244088;stroke-miterlimit:4;stroke-dasharray:none" d="M1428.622 498.26c4.12 2.79 3.03 1.284 3.293 12.137-1.536 32.313 9.014 75.342 9.098 111.108-.03 3.47-10.431 7.405-9.911 10.825.07 12.23.01 24.45.03 36.68.04 3.47-.23 6.94-.7 10.39-2.08.37-4.17.69-6.27.72-26.68-.02-53.37-.07-80.05.02-6.3-.04-13.39 1.62-19.01-2.05-3.14-1.92-1.74-6.07-2.01-9.08 6.57-.46 13.19-8.636 19.62-10.196 8.51-2.06 17.04-.87 24.9-5.3 2.17-1.2 5.34-7.458 7.27-9.057-3.323.936-4.5 4.15-13.14 2.833-4.59-1.21-9.06-2.85-13.64-4.12-4.9-1.52-10.17-2.62-14.27-5.9-2.73-2.17-5.39-4.42-8.08-6.63 1.38-2.04 2.24-5.16 5.01-5.64 9.275-5.243 17.484-5.619 26.79.18 6.01.24 11.94-2.74 16.35-6.63 1.2-4.22-2.34-7.16-5.12-9.62 1.59-.99 3.3-1.83 4.7-3.09.5-3.3.67-7.69-3-9.22-7.67-5.34-17.39-2.95-25.78-6.1-6.13-2.3-12.93-2.98-18.49-6.63-2.22-1.24-3-5.03-.64-6.48 4.36-2.79 11.569-14.914 16.499-14.014 8.53 1.54 13.572 3.49 22.282 3.69 4.72.59 11.899-4.458 15.349-8.008 1.5-2.9.67-4.96-.28-8.01-7.41-8.84-18.02 1.352-29.29.062-9.35-.73-18.58-2.51-27.76-4.3.32-9.4-1.31-35.85-.5-45.22.326-1.396 1.705-2.441 4.01-3.178 26.77.49 50.6.498 77.38.478 8.94-.115 14.122-.024 25.36-.65z" transform="matrix(.26458 0 0 .26458 -108.49 -3.791)"/><path style="fill:#f1d4c8;fill-opacity:1;stroke:#f2c5b2;stroke-width:.30000001" d="M1432.042 531.14c3.26-2.57 7.07-5.83 11.55-4.62 3.73 1.76 4.85 6.09 6.44 9.54 3.26-1.82 7.11-3.21 10.83-1.93 2.82 2.05 4.3 5.41 5.57 8.56 1.84 5.17 3.41 10.46 5.68 15.48 3.13-3.06 6.6-7.91 11.64-5.9 3.83 3.38 6.07 8.15 8.47 12.58 9.01 22.86 12.89 47.27 17.78 71.24.98 6.36 3.68 14.38-1.93 19.4-3.84 3.42-8.41 5.86-12.58 8.84-5.69 4.01-11.95 7.16-18.51 9.47-6.12 2.15-12.66 2.87-18.64 5.43-3.4 1.42-6.86 2.77-10.47 3.51-5.94.73-12.67.87-17.44-3.34.47-3.45.74-6.92.7-10.39-.02-12.23.04-24.45-.03-36.68.43-14.44.04-28.9.21-43.34.67-16.56-.07-33.14.43-49.7.17-2.72.26-5.44.3-8.15zM1278.892 554.76c3.87-7.14 12.68-9.34 20.2-9.69 7.77.23 15.65.02 23.28 1.76 9.18 1.79 18.41-10.343 27.76-9.613 11.27 1.29 22.75 5.88 30.16 14.72.95 3.05.91 6.85-.59 9.75-3.45 3.55-8.89 4.25-13.61 3.66-8.71-.2-17.23-2.15-25.76-3.69-4.93-.9-10.4 12.963-14.76 15.753-2.36 1.45-1.58 5.24.64 6.48 5.56 3.65 12.36 4.33 18.49 6.63 8.39 3.15 18.11.76 25.78 6.1 3.67 1.53 3.5 5.92 3 9.22-1.4 1.26-3.11 2.1-4.7 3.09 2.78 2.46 6.32 5.4 5.12 9.62-4.41 3.89-10.34 6.87-16.35 6.63-5.48-.59-10.98-.33-16.47-.43-3.44-.02-6.94-.63-10.32.25-2.77.48-3.63 3.6-5.01 5.64 2.69 2.21 5.35 4.46 8.08 6.63 4.1 3.28 12.848-1.707 17.748-.187 4.58 1.27 7.31 2.04 11.9 3.25 3.21.89 10.11-3.957 12.45 1.26 1.778 9.697-1.245 9.777-8.318 13.66-7.86 4.43-16.39 9.327-24.9 11.387-6.43 1.56-13.05 1.91-19.62 2.37-9.53 1.36-19.38 1.06-28.62 4.04-.8 4.65-.64 10.08-4.09 13.74-7.69 4.97-17.35 5.06-25.97 2.91-5.68-1.69-10.54-5.25-15.34-8.6-6.52-4.62-11.5-11.43-13.61-19.16.59-5.96 3.74-11.21 5.99-16.65 4.84-10.72 7.68-22.17 11.71-33.2 2.02-7.85 6.27-14.86 8.34-22.68 1.8-6.72 5.07-12.88 7.65-19.31 2.26-5.69 6.54-10.19 9.74-15.34z" transform="matrix(.26458 0 0 .26458 -108.49 -3.791)"/><path style="fill:#fff;stroke:#fff;stroke-width:.30000001" d="M1495.492 664.33c4.17-2.98 8.74-5.42 12.58-8.84 3.14 2.43 4.25 6.32 5.74 9.82 2.98 6.96 5.14 14.22 7.55 21.4.41 1.74 1.49 3.95.06 5.52-4.73 5.78-11.16 9.89-17.73 13.3-5 2.63-9.64 5.93-14.86 8.15-4.42 1.81-9.31 1.77-13.83 3.23-3.43.92-6.84 2.4-10.42 2.36-5.83-2.74-8.02-9.04-9.94-14.7-2.58-7.18-3.96-14.74-6.77-21.83 3.61-.74 7.07-2.09 10.47-3.51 5.98-2.56 12.52-3.28 18.64-5.43 6.56-2.31 12.82-5.46 18.51-9.47zM1235.462 661.94c2.11 7.73 7.09 14.54 13.61 19.16 4.8 3.35 9.66 6.91 15.34 8.6 8.62 2.15 18.28 2.06 25.97-2.91.24 1.57.49 3.18.24 4.78-1.49 8.66-2.25 17.44-3.99 26.05-.26 2.12-2.61 2.73-4.11 3.81-3.97 1.97-7.75 4.92-12.36 4.98-6.43.09-13.21.61-19.18-2.26-5.75-2.7-11.6-5.42-16.63-9.36-3.97-3.06-6.75-7.28-10.03-10.99-3.22-3.64-4.97-8.79-3.93-13.6 1.31-4.05 3.56-7.71 5.33-11.56 2.95-5.72 5.13-12.04 9.74-16.7z" transform="matrix(.26458 0 0 .26458 -108.49 -3.791)"/><path style="fill:#d59cf2;fill-opacity:1;stroke:#f29c9f;stroke-width:.30000001" d="M1521.282 919.87c.67 5.02.79 10.12 1.92 15.09.16 2.36 1.66 5.57-.85 7.19-5.69 4.46-11.17 9.49-18.06 12.05-7.85 2.91-15.55 6.35-23.72 8.33-14.21 3.59-28.91 4.36-43.35 6.67-12.22 1.02-24.43 2.23-36.64 3.33-27.06 3.03-54.47 1.08-81.21-3.74-17.12-2.37-34.01-5.98-50.97-9.24-5.09-.95-10.07-2.34-15.1-3.49-9.31-2.15-17.65-6.96-26.17-11.09-1.69-.9-3.49-1.76-4.75-3.24-.68-5.33.05-10.8 1.39-15.97.32-1.82 2.12-2.62 3.39-3.7 9.7 7.13 21.61 9.91 32.65 14.25 6.99 2.87 14.58 3.67 21.64 6.3 9.08 2.83 18.63 3.59 27.98 5.1 14.23 1.63 28.39 3.95 42.66 5.16 32.62 1.9 65.28-1.37 97.46-6.53 21.7-4.23 43.43-10.18 62.72-21.27 2.79-1.64 5.96-2.4 9.15-2.87-.04-.58-.1-1.75-.14-2.33z" transform="matrix(.26458 0 0 .26458 -108.49 -3.791)"/></svg>